<svg id="kity_svg_6" xmlns="http://www.w3.org/2000/svg" xmlns:xlink="http://www.w3.org/1999/xlink" version="1.1" width="4796" height="2143" style="background: rgb(251, 251, 251); visibility: visible;" viewBox="0 0 4796 2143"><defs id="kity_defs_7"><linearGradient id="kity_linearGradient_17" x1="0" y1="0" x2="0" y2="1"><stop id="kity_stop_18" offset="0" stop-color="rgb(255, 255, 255)"></stop><stop id="kity_stop_19" offset="1" stop-color="rgb(204, 204, 204)"></stop></linearGradient><marker id="kity_marker_4" orient="auto" refX="6" refY="0" viewBox="-7 -7 14 14" markerWidth="7" markerHeight="7" markerUnits="userSpaceOnUse"><path id="kity_path_5" fill="rgb(115, 191, 118)" stroke="none" d="M6,0A6,6,0,1,1,-6,0A6,6,0,1,1,6,0"></path></marker><marker id="kity_marker_2" orient="auto" refX="6" refY="0" viewBox="-7 -7 14 14" markerWidth="7" markerHeight="7" markerUnits="userSpaceOnUse"><path id="kity_path_3" fill="rgb(115, 161, 191)" stroke="none" d="M6,0A6,6,0,1,1,-6,0A6,6,0,1,1,6,0"></path></marker></defs><g id="kity_g_8"><g id="minder1" text-rendering="geometricPrecision"><g id="minder_connect_group1"><path id="kity_path_31" fill="none" stroke="rgb(115, 161, 191)" stroke-width="1" d="M4066.9999529607594,910.4999899305403A257.5,0,0,0,1,4324.499952960759,910.4999899305403"></path><path id="kity_path_33" fill="none" stroke="rgb(115, 161, 191)" stroke-width="1" d="M4478.499952960759,910.4999899305403C4481.499952960759,910.4999899305403,4481.499952960759,878.4999899305403,4484.499952960759,878.4999899305403L4725.499952960759,878.4999899305403"></path><path id="kity_path_35" fill="none" stroke="rgb(115, 161, 191)" stroke-width="1" d="M4478.499952960759,910.4999899305403C4481.499952960759,910.4999899305403,4481.499952960759,940.4999899305403,4484.499952960759,940.4999899305403L4749.499952960759,940.4999899305403"></path><path id="kity_path_37" fill="none" stroke="rgb(115, 161, 191)" stroke-width="1" d="M4478.499952960759,910.4999899305403C4481.499952960759,910.4999899305403,4481.499952960759,1002.4999899305403,4484.499952960759,1002.4999899305403L4776.499952960759,1002.4999899305403"></path><path id="kity_path_39" fill="none" stroke="rgb(115, 161, 191)" stroke-width="1" d="M4066.9999529607594,910.4999899305403A257.5,0,0,0,1,3809.4999529607594,910.4999899305403"></path><path id="kity_path_41" fill="none" stroke="rgb(115, 161, 191)" stroke-width="1" d="M3572.4999529607594,910.4999899305403C3569.4999529607594,910.4999899305403,3569.4999529607594,77.49998993054032,3566.4999529607594,77.49998993054032L3301.4999529607594,77.49998993054032"></path><path id="kity_path_43" fill="none" stroke="rgb(115, 161, 191)" stroke-width="1" d="M3572.4999529607594,910.4999899305403C3569.4999529607594,910.4999899305403,3569.4999529607594,139.49998993054032,3566.4999529607594,139.49998993054032L3244.4999529607594,139.49998993054032"></path><path id="kity_path_45" fill="none" stroke="rgb(115, 161, 191)" stroke-width="1" d="M3572.4999529607594,910.4999899305403C3569.4999529607594,910.4999899305403,3569.4999529607594,201.49998993054032,3566.4999529607594,201.49998993054032L3236.4999529607594,201.49998993054032"></path><path id="kity_path_47" fill="none" stroke="rgb(115, 161, 191)" stroke-width="1" d="M3572.4999529607594,910.4999899305403C3569.4999529607594,910.4999899305403,3569.4999529607594,1803.4999899305403,3566.4999529607594,1803.4999899305403L3242.4999529607594,1803.4999899305403"></path><path id="kity_path_49" fill="none" stroke="rgb(115, 161, 191)" stroke-width="1" d="M3242.4999529607594,1803.4999899305403C3239.4999529607594,1803.4999899305403,3239.4999529607594,1576.4999899305403,3236.4999529607594,1576.4999899305403L3083.4999529607594,1576.4999899305403"></path><path id="kity_path_51" fill="none" stroke="rgb(115, 161, 191)" stroke-width="1" d="M3083.4999529607594,1576.4999899305403C3088.9999529607594,1576.4999899305403,3088.9999529607594,1274.4999899305403,3094.4999529607594,1274.4999899305403L2901.4999529607594,1274.4999899305403"></path><path id="kity_path_119" fill="none" stroke="rgb(115, 161, 191)" stroke-width="1" d="M3083.4999529607594,1576.4999899305403C3080.4999529607594,1576.4999899305403,3080.4999529607594,1874.4999899305403,3077.4999529607594,1874.4999899305403L2641.4999529607594,1874.4999899305403"></path><path id="kity_path_121" fill="none" stroke="rgb(115, 161, 191)" stroke-width="1" d="M3242.4999529607594,1803.4999899305403C3239.4999529607594,1803.4999899305403,3239.4999529607594,2030.4999899305403,3236.4999529607594,2030.4999899305403L3021.4999529607594,2030.4999899305403"></path><path id="kity_path_123" fill="none" stroke="rgb(115, 161, 191)" stroke-width="1" d="M3021.4999529607594,2030.4999899305403C3026.9999529607594,2030.4999899305403,3026.9999529607594,1934.4999899305403,3032.4999529607594,1934.4999899305403L2195.4999529607594,1934.4999899305403"></path><path id="kity_path_125" fill="none" stroke="rgb(115, 161, 191)" stroke-width="1" d="M3021.4999529607594,2030.4999899305403C3018.4999529607594,2030.4999899305403,3018.4999529607594,1999.4999899305403,3015.4999529607594,1999.4999899305403L2811.4999529607594,1999.4999899305403"></path><path id="kity_path_127" fill="none" stroke="rgb(115, 161, 191)" stroke-width="1" d="M3021.4999529607594,2030.4999899305403C3018.4999529607594,2030.4999899305403,3018.4999529607594,2061.4999899305403,3015.4999529607594,2061.4999899305403L2862.4999529607594,2061.4999899305403"></path><path id="kity_path_129" fill="none" stroke="rgb(115, 161, 191)" stroke-width="1" d="M3021.4999529607594,2030.4999899305403C3018.4999529607594,2030.4999899305403,3018.4999529607594,2123.4999899305403,3015.4999529607594,2123.4999899305403L2485.4999529607594,2123.4999899305403"></path><path id="kity_path_481" fill="none" stroke="rgb(115, 161, 191)" stroke-width="1" d="M2523.4999529607594,739.4999899305403C2520.4999529607594,739.4999899305403,2520.4999529607594,259.4999899305403,2517.4999529607594,259.4999899305403L2008.4999529607594,259.4999899305403"></path><path id="kity_path_482" fill="none" stroke="rgb(115, 161, 191)" stroke-width="1" d="M2523.4999529607594,739.4999899305403C2520.4999529607594,739.4999899305403,2520.4999529607594,321.4999899305403,2517.4999529607594,321.4999899305403L2147.4999529607594,321.4999899305403"></path><path id="kity_path_483" fill="none" stroke="rgb(115, 161, 191)" stroke-width="1" d="M2523.4999529607594,739.4999899305403C2520.4999529607594,739.4999899305403,2520.4999529607594,383.4999899305403,2517.4999529607594,383.4999899305403L1767.4999529607594,383.4999899305403"></path><path id="kity_path_484" fill="none" stroke="rgb(115, 161, 191)" stroke-width="1" d="M2523.4999529607594,739.4999899305403C2520.4999529607594,739.4999899305403,2520.4999529607594,445.4999899305403,2517.4999529607594,445.4999899305403L2020.4999529607594,445.4999899305403"></path><path id="kity_path_485" fill="none" stroke="rgb(115, 161, 191)" stroke-width="1" d="M2523.4999529607594,739.4999899305403C2520.4999529607594,739.4999899305403,2520.4999529607594,507.4999899305403,2517.4999529607594,507.4999899305403L2233.4999529607594,507.4999899305403"></path><path id="kity_path_486" fill="none" stroke="rgb(115, 161, 191)" stroke-width="1" d="M1748.4999529607594,693.4999899305403C1745.4999529607594,693.4999899305403,1745.4999529607594,569.4999899305403,1742.4999529607594,569.4999899305403L1266.4999529607594,569.4999899305403"></path><path id="kity_path_487" fill="none" stroke="rgb(115, 161, 191)" stroke-width="1" d="M1748.4999529607594,693.4999899305403C1745.4999529607594,693.4999899305403,1745.4999529607594,631.4999899305403,1742.4999529607594,631.4999899305403L1170.4999529607594,631.4999899305403"></path><path id="kity_path_488" fill="none" stroke="rgb(115, 161, 191)" stroke-width="1" d="M1748.4999529607594,693.4999899305403C1745.4999529607594,693.4999899305403,1745.4999529607594,693.4999899305403,1742.4999529607594,693.4999899305403L1167.4999529607594,693.4999899305403"></path><path id="kity_path_489" fill="none" stroke="rgb(115, 161, 191)" stroke-width="1" d="M1748.4999529607594,693.4999899305403C1745.4999529607594,693.4999899305403,1745.4999529607594,755.4999899305403,1742.4999529607594,755.4999899305403L1068.4999529607594,755.4999899305403"></path><path id="kity_path_490" fill="none" stroke="rgb(115, 161, 191)" stroke-width="1" d="M1748.4999529607594,693.4999899305403C1745.4999529607594,693.4999899305403,1745.4999529607594,817.4999899305403,1742.4999529607594,817.4999899305403L1380.4999529607594,817.4999899305403"></path><path id="kity_path_491" fill="none" stroke="rgb(115, 161, 191)" stroke-width="1" d="M2177.4999529607594,1220.4999899305403C2174.4999529607594,1220.4999899305403,2174.4999529607594,693.4999899305403,2171.4999529607594,693.4999899305403L1748.4999529607594,693.4999899305403"></path><path id="kity_path_492" fill="none" stroke="rgb(115, 161, 191)" stroke-width="1" d="M1932.4999529607594,1282.4999899305403C1929.4999529607594,1282.4999899305403,1929.4999529607594,879.4999899305403,1926.4999529607594,879.4999899305403L1556.4999529607594,879.4999899305403"></path><path id="kity_path_493" fill="none" stroke="rgb(115, 161, 191)" stroke-width="1" d="M834.4999529607594,1035.4999899305403C831.4999529607594,1035.4999899305403,831.4999529607594,942.4999899305403,828.4999529607594,942.4999899305403L31.4999529607594,942.4999899305403"></path><path id="kity_path_494" fill="none" stroke="rgb(115, 161, 191)" stroke-width="1" d="M834.4999529607594,1035.4999899305403C831.4999529607594,1035.4999899305403,831.4999529607594,1004.4999899305403,828.4999529607594,1004.4999899305403L85.4999529607594,1004.4999899305403"></path><path id="kity_path_495" fill="none" stroke="rgb(115, 161, 191)" stroke-width="1" d="M834.4999529607594,1035.4999899305403C831.4999529607594,1035.4999899305403,831.4999529607594,1066.4999899305403,828.4999529607594,1066.4999899305403L20.4999529607594,1066.4999899305403"></path><path id="kity_path_496" fill="none" stroke="rgb(115, 161, 191)" stroke-width="1" d="M834.4999529607594,1035.4999899305403C831.4999529607594,1035.4999899305403,831.4999529607594,1128.4999899305403,828.4999529607594,1128.4999899305403L58.4999529607594,1128.4999899305403"></path><path id="kity_path_497" fill="none" stroke="rgb(115, 161, 191)" stroke-width="1" d="M1343.4999529607594,1174.4999899305403C1340.4999529607594,1174.4999899305403,1340.4999529607594,1035.4999899305403,1337.4999529607594,1035.4999899305403L834.4999529607594,1035.4999899305403"></path><path id="kity_path_498" fill="none" stroke="rgb(115, 161, 191)" stroke-width="1" d="M1168.4999529607594,1314.4999899305403C1165.4999529607594,1314.4999899305403,1165.4999529607594,1190.4999899305403,1162.4999529607594,1190.4999899305403L950.4999529607594,1190.4999899305403"></path><path id="kity_path_499" fill="none" stroke="rgb(115, 161, 191)" stroke-width="1" d="M1168.4999529607594,1314.4999899305403C1165.4999529607594,1314.4999899305403,1165.4999529607594,1252.4999899305403,1162.4999529607594,1252.4999899305403L670.4999529607594,1252.4999899305403"></path><path id="kity_path_500" fill="none" stroke="rgb(115, 161, 191)" stroke-width="1" d="M1168.4999529607594,1314.4999899305403C1165.4999529607594,1314.4999899305403,1165.4999529607594,1314.4999899305403,1162.4999529607594,1314.4999899305403L856.4999529607594,1314.4999899305403"></path><path id="kity_path_501" fill="none" stroke="rgb(115, 161, 191)" stroke-width="1" d="M1168.4999529607594,1314.4999899305403C1165.4999529607594,1314.4999899305403,1165.4999529607594,1376.4999899305403,1162.4999529607594,1376.4999899305403L894.4999529607594,1376.4999899305403"></path><path id="kity_path_502" fill="none" stroke="rgb(115, 161, 191)" stroke-width="1" d="M1168.4999529607594,1314.4999899305403C1165.4999529607594,1314.4999899305403,1165.4999529607594,1438.4999899305403,1162.4999529607594,1438.4999899305403L523.4999529607594,1438.4999899305403"></path><path id="kity_path_503" fill="none" stroke="rgb(115, 161, 191)" stroke-width="1" d="M1343.4999529607594,1174.4999899305403C1340.4999529607594,1174.4999899305403,1340.4999529607594,1314.4999899305403,1337.4999529607594,1314.4999899305403L1168.4999529607594,1314.4999899305403"></path><path id="kity_path_504" fill="none" stroke="rgb(115, 161, 191)" stroke-width="1" d="M1932.4999529607594,1282.4999899305403C1929.4999529607594,1282.4999899305403,1929.4999529607594,1174.4999899305403,1926.4999529607594,1174.4999899305403L1343.4999529607594,1174.4999899305403"></path><path id="kity_path_505" fill="none" stroke="rgb(115, 161, 191)" stroke-width="1" d="M1932.4999529607594,1282.4999899305403C1929.4999529607594,1282.4999899305403,1929.4999529607594,1499.4999899305403,1926.4999529607594,1499.4999899305403L1287.4999529607594,1499.4999899305403"></path><path id="kity_path_506" fill="none" stroke="rgb(115, 161, 191)" stroke-width="1" d="M1932.4999529607594,1282.4999899305403C1929.4999529607594,1282.4999899305403,1929.4999529607594,1561.4999899305403,1926.4999529607594,1561.4999899305403L1474.4999529607594,1561.4999899305403"></path><path id="kity_path_507" fill="none" stroke="rgb(115, 161, 191)" stroke-width="1" d="M1932.4999529607594,1282.4999899305403C1929.4999529607594,1282.4999899305403,1929.4999529607594,1623.4999899305403,1926.4999529607594,1623.4999899305403L1495.4999529607594,1623.4999899305403"></path><path id="kity_path_508" fill="none" stroke="rgb(115, 161, 191)" stroke-width="1" d="M1932.4999529607594,1282.4999899305403C1929.4999529607594,1282.4999899305403,1929.4999529607594,1685.4999899305403,1926.4999529607594,1685.4999899305403L1535.4999529607594,1685.4999899305403"></path><path id="kity_path_509" fill="none" stroke="rgb(115, 161, 191)" stroke-width="1" d="M2177.4999529607594,1220.4999899305403C2174.4999529607594,1220.4999899305403,2174.4999529607594,1282.4999899305403,2171.4999529607594,1282.4999899305403L1932.4999529607594,1282.4999899305403"></path><path id="kity_path_510" fill="none" stroke="rgb(115, 161, 191)" stroke-width="1" d="M2177.4999529607594,1220.4999899305403C2174.4999529607594,1220.4999899305403,2174.4999529607594,1747.4999899305403,2171.4999529607594,1747.4999899305403L2002.4999529607594,1747.4999899305403"></path><path id="kity_path_511" fill="none" stroke="rgb(115, 161, 191)" stroke-width="1" d="M2523.4999529607594,739.4999899305403C2520.4999529607594,739.4999899305403,2520.4999529607594,1220.4999899305403,2517.4999529607594,1220.4999899305403L2177.4999529607594,1220.4999899305403"></path><path id="kity_path_512" fill="none" stroke="rgb(115, 161, 191)" stroke-width="1" d="M2901.4999529607594,1274.4999899305403C2898.4999529607594,1274.4999899305403,2898.4999529607594,739.4999899305403,2895.4999529607594,739.4999899305403L2523.4999529607594,739.4999899305403"></path><path id="kity_path_513" fill="none" stroke="rgb(115, 161, 191)" stroke-width="1" d="M2901.4999529607594,1274.4999899305403C2898.4999529607594,1274.4999899305403,2898.4999529607594,1809.4999899305403,2895.4999529607594,1809.4999899305403L2790.4999529607594,1809.4999899305403"></path></g><g id="minder_node1"><path id="kity_path_432" fill="rgba(0, 0, 0, .25)" stroke="none" d="M3865.4999529607594,856.4999899305403h411a59,59,0,0,1,59,59v0a59,59,0,0,1,-59,59h-411a59,59,0,0,1,-59,-59v0a59,59,0,0,1,59,-59z" display="none"></path><path id="node_outline1" fill="rgb(115, 161, 191)" stroke="rgb(115, 161, 191)" d="M3830.4999529607594,880.4999899305403h473a5,5,0,0,1,5,5v50a5,5,0,0,1,-5,5h-473a5,5,0,0,1,-5,-5v-50a5,5,0,0,1,5,-5z" stroke-width="3"></path><g id="node_text1" fill="white"><text id="kity_text_22" text-rendering="inherit" font-size="48" dy=".8em" y="886.4999899305403" x="3837.4999529607594">Eesti haridussüsteem</text></g></g><g id="kity_g_12" display="none"><path id="kity_path_13" fill="none" stroke="none" d="M3837.4999529607594,910.4999899305403h0v0h0z"></path></g><g id="kity_g_14" display="none"><path id="kity_path_15" fill="none" stroke="none" d="M3837.4999529607594,910.4999899305403h0v0h0z"></path><path id="kity_path_16" fill="none" stroke="none"></path></g><g id="minder_node2"><path id="kity_path_430" fill="rgba(0, 0, 0, .25)" stroke="none" d="M4335.499941583723,885.4999899305403h142a5,5,0,0,1,5,5v50a5,5,0,0,1,-5,5h-142a5,5,0,0,1,-5,-5v-50a5,5,0,0,1,5,-5z" display="none"></path><g id="node_expander4" style="cursor: pointer;"><path id="kity_path_290" fill="white" stroke="gray" d="M4325.49994218722,910.4999899305403A6,6,0,1,1,4313.49994218722,910.4999899305403A6,6,0,1,1,4325.49994218722,910.4999899305403"></path><path id="kity_path_291" fill="none" stroke="gray" d="M4314.99994218722,910.4999899305403L4323.99994218722,910.4999899305403"></path></g><path id="node_outline5" fill="rgb(238, 243, 246)" stroke="rgb(115, 161, 191)" d="M4329.499941583723,880.4999899305403h146a3,3,0,0,1,3,3v54a3,3,0,0,1,-3,3h-146a3,3,0,0,1,-3,-3v-54a3,3,0,0,1,3,-3z" stroke-width="1"></path><g id="node_text5" fill="black"><text id="kity_text_137" text-rendering="inherit" font-size="48" dy=".8em" y="886.4999899305403" x="4346.499941583723">Liigid</text></g></g><g id="minder_node3"><path id="kity_path_433" fill="rgba(0, 0, 0, .25)" stroke="none" d="M4613.999938163906,734.4999913163483h0a119,119,0,0,1,119,119v0a119,119,0,0,1,-119,119h0a119,119,0,0,1,-119,-119v0a119,119,0,0,1,119,-119z" display="none"></path><g id="node_expander1" style="cursor: pointer;" display="none"><path id="kity_path_281" fill="white" stroke="gray" d="M4494.4999384097755,848.4999913163483A6,6,0,1,1,4482.4999384097755,848.4999913163483A6,6,0,1,1,4494.4999384097755,848.4999913163483"></path><path id="kity_path_282" fill="none" stroke="gray"></path></g><path id="node_outline2" fill="#7030a0" stroke="rgb(57, 80, 96)" d="M4499.499938163906,821.4999913163483h221a5,5,0,0,1,5,5v44a5,5,0,0,1,-5,5h-221a5,5,0,0,1,-5,-5v-44a5,5,0,0,1,5,-5z" stroke-width="3"></path><g id="node_text2" fill="#ffffff"><text id="kity_text_131" text-rendering="inherit" font-size="48" dy=".8em" y="824.4999913163483" x="4499.499938163906">üldharidus</text></g></g><g id="minder_node4"><path id="kity_path_434" fill="rgba(0, 0, 0, .25)" stroke="none" d="M4625.999938163906,784.4999899305403h0a131,131,0,0,1,131,131v0a131,131,0,0,1,-131,131h0a131,131,0,0,1,-131,-131v0a131,131,0,0,1,131,-131z" display="none"></path><g id="node_expander2" style="cursor: pointer;" display="none"><path id="kity_path_284" fill="white" stroke="gray" d="M4494.4999384097755,910.4999899305403A6,6,0,1,1,4482.4999384097755,910.4999899305403A6,6,0,1,1,4494.4999384097755,910.4999899305403"></path><path id="kity_path_285" fill="none" stroke="gray"></path></g><path id="node_outline3" fill="none" stroke="none" d="M4499.499938163906,883.4999899305403h245a5,5,0,0,1,5,5v44a5,5,0,0,1,-5,5h-245a5,5,0,0,1,-5,-5v-44a5,5,0,0,1,5,-5z" stroke-width="3"></path><g id="node_text3" fill="black"><text id="kity_text_133" text-rendering="inherit" font-size="48" dy=".8em" y="886.4999899305403" x="4499.499938163906">huviharidus</text></g></g><g id="minder_node5"><path id="kity_path_435" fill="rgba(0, 0, 0, .25)" stroke="none" d="M4639.499938163906,833.4999885447323h0a144,144,0,0,1,144,144v0a144,144,0,0,1,-144,144h0a144,144,0,0,1,-144,-144v0a144,144,0,0,1,144,-144z" display="none"></path><g id="node_expander3" style="cursor: pointer;" display="none"><path id="kity_path_287" fill="white" stroke="gray" d="M4494.4999384097755,972.4999885447323A6,6,0,1,1,4482.4999384097755,972.4999885447323A6,6,0,1,1,4494.4999384097755,972.4999885447323"></path><path id="kity_path_288" fill="none" stroke="gray"></path></g><path id="node_outline4" fill="none" stroke="none" d="M4499.499938163906,945.4999885447323h272a5,5,0,0,1,5,5v44a5,5,0,0,1,-5,5h-272a5,5,0,0,1,-5,-5v-44a5,5,0,0,1,5,-5z" stroke-width="3"></path><g id="node_text4" fill="black"><text id="kity_text_135" text-rendering="inherit" font-size="48" dy=".8em" y="948.4999885447323" x="4499.499938163906">kutseharidus</text></g></g><g id="minder_node6"><path id="kity_path_431" fill="rgba(0, 0, 0, .25)" stroke="none" d="M3581.499958436936,885.4999899305403h225a5,5,0,0,1,5,5v50a5,5,0,0,1,-5,5h-225a5,5,0,0,1,-5,-5v-50a5,5,0,0,1,5,-5z" display="none"></path><g id="node_expander50" style="cursor: pointer;"><path id="kity_path_428" fill="white" stroke="gray" d="M3820.4999534748495,910.4999899305403A6,6,0,1,1,3808.4999534748495,910.4999899305403A6,6,0,1,1,3820.4999534748495,910.4999899305403"></path><path id="kity_path_429" fill="none" stroke="gray" d="M3809.9999534748495,910.4999899305403L3818.9999534748495,910.4999899305403"></path></g><path id="node_outline51" fill="rgb(238, 243, 246)" stroke="rgb(115, 161, 191)" d="M3575.499958436936,880.4999899305403h229a3,3,0,0,1,3,3v54a3,3,0,0,1,-3,3h-229a3,3,0,0,1,-3,-3v-54a3,3,0,0,1,3,-3z" stroke-width="1"></path><g id="node_text51" fill="black"><text id="kity_text_229" text-rendering="inherit" font-size="48" dy=".8em" y="886.4999899305403" x="3592.499958436936">Tasemed</text></g></g><g id="minder_node7"><path id="kity_path_436" fill="rgba(0, 0, 0, .25)" stroke="none" d="M3432.9999648295343,-78.49999077990651h0a131,131,0,0,1,131,131v0a131,131,0,0,1,-131,131h0a131,131,0,0,1,-131,-131v0a131,131,0,0,1,131,-131z" display="none"></path><g id="node_expander5" style="cursor: pointer;" display="none"><path id="kity_path_293" fill="white" stroke="gray" d="M3568.4999591074884,47.50000922009349A6,6,0,1,1,3556.4999591074884,47.50000922009349A6,6,0,1,1,3568.4999591074884,47.50000922009349"></path><path id="kity_path_294" fill="none" stroke="gray"></path></g><path id="node_outline6" fill="none" stroke="none" d="M3306.4999648295343,20.50000922009349h245a5,5,0,0,1,5,5v44a5,5,0,0,1,-5,5h-245a5,5,0,0,1,-5,-5v-44a5,5,0,0,1,5,-5z" stroke-width="3"></path><g id="node_text6" fill="black"><text id="kity_text_139" text-rendering="inherit" font-size="48" dy=".8em" y="23.50000922009349" x="3306.4999648295343">alusharidus</text></g></g><g id="minder_node8"><path id="kity_path_437" fill="rgba(0, 0, 0, .25)" stroke="none" d="M3404.4999661035836,-44.4999921657145h0a159,159,0,0,1,159,159v0a159,159,0,0,1,-159,159h0a159,159,0,0,1,-159,-159v0a159,159,0,0,1,159,-159z" display="none"></path><g id="node_expander6" style="cursor: pointer;" display="none"><path id="kity_path_296" fill="white" stroke="gray" d="M3568.4999591074884,109.5000078342855A6,6,0,1,1,3556.4999591074884,109.5000078342855A6,6,0,1,1,3568.4999591074884,109.5000078342855"></path><path id="kity_path_297" fill="none" stroke="gray"></path></g><path id="node_outline7" fill="none" stroke="none" d="M3249.4999661035836,82.5000078342855h302a5,5,0,0,1,5,5v44a5,5,0,0,1,-5,5h-302a5,5,0,0,1,-5,-5v-44a5,5,0,0,1,5,-5z" stroke-width="3"></path><g id="node_text7" fill="black"><text id="kity_text_141" text-rendering="inherit" font-size="48" dy=".8em" y="85.5000078342855" x="3249.4999661035836">1. põhiharidus</text></g></g><g id="minder_node9"><path id="kity_path_438" fill="rgba(0, 0, 0, .25)" stroke="none" d="M3400.4999662823975,13.500006448477507h0a163,163,0,0,1,163,163v0a163,163,0,0,1,-163,163h0a163,163,0,0,1,-163,-163v0a163,163,0,0,1,163,-163z" display="none"></path><g id="node_expander7" style="cursor: pointer;" display="none"><path id="kity_path_299" fill="white" stroke="gray" d="M3568.4999591074884,171.5000064484775A6,6,0,1,1,3556.4999591074884,171.5000064484775A6,6,0,1,1,3568.4999591074884,171.5000064484775"></path><path id="kity_path_300" fill="none" stroke="gray"></path></g><path id="node_outline8" fill="none" stroke="none" d="M3241.4999662823975,144.5000064484775h310a5,5,0,0,1,5,5v44a5,5,0,0,1,-5,5h-310a5,5,0,0,1,-5,-5v-44a5,5,0,0,1,5,-5z" stroke-width="3"></path><g id="node_text8" fill="black"><text id="kity_text_143" text-rendering="inherit" font-size="48" dy=".8em" y="147.5000064484775" x="3241.4999662823975">2. keskharidus</text></g></g><g id="minder_node10"><path id="kity_path_480" fill="rgba(0, 0, 0, .25)" stroke="none" d="M3403.499966148287,1618.4999706409872h0a160,160,0,0,1,160,160v0a160,160,0,0,1,-160,160h0a160,160,0,0,1,-160,-160v0a160,160,0,0,1,160,-160z" display="none"></path><g id="node_expander49" style="cursor: pointer;"><path id="kity_path_425" fill="white" stroke="gray" d="M3568.4999591074884,1773.4999706409872A6,6,0,1,1,3556.4999591074884,1773.4999706409872A6,6,0,1,1,3568.4999591074884,1773.4999706409872"></path><path id="kity_path_426" fill="none" stroke="gray" d="M3557.9999591074884,1773.4999706409872L3566.9999591074884,1773.4999706409872"></path></g><path id="node_outline50" fill="#7030a0" stroke="rgb(57, 80, 96)" d="M3247.499966148287,1746.4999706409872h304a5,5,0,0,1,5,5v44a5,5,0,0,1,-5,5h-304a5,5,0,0,1,-5,-5v-44a5,5,0,0,1,5,-5z" stroke-width="3"></path><g id="node_text50" fill="#ffffff"><text id="kity_text_227" text-rendering="inherit" font-size="48" dy=".8em" y="1749.4999706409872" x="3247.499966148287">3. kõrgharidus</text></g></g><g id="minder_node11"><path id="kity_path_474" fill="rgba(0, 0, 0, .25)" stroke="none" d="M3158.999969702214,1474.4999757148325h0a77,77,0,0,1,77,77v0a77,77,0,0,1,-77,77h0a77,77,0,0,1,-77,-77v0a77,77,0,0,1,77,-77z" display="none"></path><g id="node_expander43" style="cursor: pointer;"><path id="kity_path_407" fill="white" stroke="gray" d="M3238.499966483563,1546.4999757148325A6,6,0,1,1,3226.499966483563,1546.4999757148325A6,6,0,1,1,3238.499966483563,1546.4999757148325"></path><path id="kity_path_408" fill="none" stroke="gray" d="M3227.999966483563,1546.4999757148325L3236.999966483563,1546.4999757148325"></path></g><path id="node_outline44" fill="none" stroke="none" d="M3088.499969702214,1519.4999757148325h133a5,5,0,0,1,5,5v44a5,5,0,0,1,-5,5h-133a5,5,0,0,1,-5,-5v-44a5,5,0,0,1,5,-5z" stroke-width="3"></path><g id="node_text44" fill="black"><text id="kity_text_215" text-rendering="inherit" font-size="48" dy=".8em" y="1522.4999757148325" x="3088.499969702214">Koolid</text></g></g><g id="minder_node12" opacity="1"><path id="kity_path_472" fill="rgba(0, 0, 0, .25)" stroke="none" d="M2996.999973770231,1153.4999824650586h0a96,96,0,0,1,96,96v0a96,96,0,0,1,-96,96h0a96,96,0,0,1,-96,-96v0a96,96,0,0,1,96,-96z" display="none"></path><g id="node_expander41" style="cursor: pointer;"><path id="kity_path_401" fill="white" stroke="gray" d="M3096.4999696575105,1244.4999824650586A6,6,0,1,1,3084.4999696575105,1244.4999824650586A6,6,0,1,1,3096.4999696575105,1244.4999824650586"></path><path id="kity_path_402" fill="none" stroke="gray" d="M3085.9999696575105,1244.4999824650586L3094.9999696575105,1244.4999824650586"></path></g><path id="node_outline42" fill="#7030a0" stroke="rgb(57, 80, 96)" d="M2906.499973770231,1217.4999824650586h173a5,5,0,0,1,5,5v44a5,5,0,0,1,-5,5h-173a5,5,0,0,1,-5,-5v-44a5,5,0,0,1,5,-5z" stroke-width="3"></path><g id="node_text42" fill="#ffffff"><text id="kity_text_211" text-rendering="inherit" font-size="48" dy=".8em" y="1220.4999824650586" x="2906.499973770231">ülikoolid</text></g></g><g id="minder_node46"><path id="kity_path_473" fill="rgba(0, 0, 0, .25)" stroke="none" d="M2858.499979581684,1634.4999690540135h0a215,215,0,0,1,215,215v0a215,215,0,0,1,-215,215h0a215,215,0,0,1,-215,-215v0a215,215,0,0,1,215,-215z" display="none"></path><g id="node_expander42" style="cursor: pointer;" display="none"><path id="kity_path_404" fill="white" stroke="gray" d="M3079.49997003749,1844.4999690540135A6,6,0,1,1,3067.49997003749,1844.4999690540135A6,6,0,1,1,3079.49997003749,1844.4999690540135"></path><path id="kity_path_405" fill="none" stroke="gray"></path></g><path id="node_outline43" fill="none" stroke="none" d="M2646.499979581684,1817.4999690540135h416a5,5,0,0,1,5,5v44a5,5,0,0,1,-5,5h-416a5,5,0,0,1,-5,-5v-44a5,5,0,0,1,5,-5z" stroke-width="3"></path><g id="node_text43" fill="black"><text id="kity_text_213" text-rendering="inherit" font-size="48" dy=".8em" y="1820.4999690540135" x="2646.499979581684">rakenduskõrgkoolid</text></g></g><g id="minder_node47"><path id="kity_path_479" fill="rgba(0, 0, 0, .25)" stroke="none" d="M3127.999971088022,1898.4999655671418h0a107,107,0,0,1,107,107v0a107,107,0,0,1,-107,107h0a107,107,0,0,1,-107,-107v0a107,107,0,0,1,107,-107z" display="none"></path><g id="node_expander48" style="cursor: pointer;"><path id="kity_path_422" fill="white" stroke="gray" d="M3238.499966483563,2000.4999655671418A6,6,0,1,1,3226.499966483563,2000.4999655671418A6,6,0,1,1,3238.499966483563,2000.4999655671418"></path><path id="kity_path_423" fill="none" stroke="gray" d="M3227.999966483563,2000.4999655671418L3236.999966483563,2000.4999655671418"></path></g><path id="node_outline49" fill="none" stroke="none" d="M3026.499971088022,1973.4999655671418h195a5,5,0,0,1,5,5v44a5,5,0,0,1,-5,5h-195a5,5,0,0,1,-5,-5v-44a5,5,0,0,1,5,-5z" stroke-width="3"></path><g id="node_text49" fill="black"><text id="kity_text_225" text-rendering="inherit" font-size="48" dy=".8em" y="1976.4999655671418" x="3026.499971088022">Tasemed</text></g></g><g id="minder_node48" opacity="1"><path id="kity_path_475" fill="rgba(0, 0, 0, .25)" stroke="none" d="M2612.9999895505607,1494.499967712909h0a415,415,0,0,1,415,415v0a415,415,0,0,1,-415,415h0a415,415,0,0,1,-415,-415v0a415,415,0,0,1,415,-415z" display="none"></path><g id="node_expander44" style="cursor: pointer;" display="none"><path id="kity_path_410" fill="white" stroke="gray" d="M3034.4999710433185,1904.499967712909A6,6,0,1,1,3022.4999710433185,1904.499967712909A6,6,0,1,1,3034.4999710433185,1904.499967712909"></path><path id="kity_path_411" fill="none" stroke="gray"></path></g><path id="node_outline45" fill="#7030a0" stroke="rgb(57, 80, 96)" d="M2200.4999895505607,1877.499967712909h817a5,5,0,0,1,5,5v44a5,5,0,0,1,-5,5h-817a5,5,0,0,1,-5,-5v-44a5,5,0,0,1,5,-5z" stroke-width="3"></path><g id="node_text45" fill="#ffffff"><text id="kity_text_217" text-rendering="inherit" font-size="48" dy=".8em" y="1880.499967712909" x="2200.4999895505607">bakalaureuse- ja rakenduskõrgharidus</text></g></g><g id="minder_node49"><path id="kity_path_476" fill="rgba(0, 0, 0, .25)" stroke="none" d="M2912.4999757818878,1873.4999662600458h0a101,101,0,0,1,101,101v0a101,101,0,0,1,-101,101h0a101,101,0,0,1,-101,-101v0a101,101,0,0,1,101,-101z" display="none"></path><g id="node_expander45" style="cursor: pointer;" display="none"><path id="kity_path_413" fill="white" stroke="gray" d="M3017.499971423298,1969.4999662600458A6,6,0,1,1,3005.499971423298,1969.4999662600458A6,6,0,1,1,3017.499971423298,1969.4999662600458"></path><path id="kity_path_414" fill="none" stroke="gray"></path></g><path id="node_outline46" fill="none" stroke="none" d="M2816.4999757818878,1942.4999662600458h184a5,5,0,0,1,5,5v44a5,5,0,0,1,-5,5h-184a5,5,0,0,1,-5,-5v-44a5,5,0,0,1,5,-5z" stroke-width="3"></path><g id="node_text46" fill="black"><text id="kity_text_219" text-rendering="inherit" font-size="48" dy=".8em" y="1945.4999662600458" x="2816.4999757818878">magister</text></g></g><g id="minder_node50"><path id="kity_path_477" fill="rgba(0, 0, 0, .25)" stroke="none" d="M2937.999974641949,1959.4999648742378h0a77,77,0,0,1,77,77v0a77,77,0,0,1,-77,77h0a77,77,0,0,1,-77,-77v0a77,77,0,0,1,77,-77z" display="none"></path><g id="node_expander46" style="cursor: pointer;" display="none"><path id="kity_path_416" fill="white" stroke="gray" d="M3017.499971423298,2031.4999648742378A6,6,0,1,1,3005.499971423298,2031.4999648742378A6,6,0,1,1,3017.499971423298,2031.4999648742378"></path><path id="kity_path_417" fill="none" stroke="gray"></path></g><path id="node_outline47" fill="none" stroke="none" d="M2867.499974641949,2004.4999648742378h133a5,5,0,0,1,5,5v44a5,5,0,0,1,-5,5h-133a5,5,0,0,1,-5,-5v-44a5,5,0,0,1,5,-5z" stroke-width="3"></path><g id="node_text47" fill="black"><text id="kity_text_221" text-rendering="inherit" font-size="48" dy=".8em" y="2007.4999648742378" x="2867.499974641949">doktor</text></g></g><g id="minder_node51"><path id="kity_path_478" fill="rgba(0, 0, 0, .25)" stroke="none" d="M2749.4999830685556,1836.4999634884298h0a262,262,0,0,1,262,262v0a262,262,0,0,1,-262,262h0a262,262,0,0,1,-262,-262v0a262,262,0,0,1,262,-262z" display="none"></path><g id="node_expander47" style="cursor: pointer;" display="none"><path id="kity_path_419" fill="white" stroke="gray" d="M3017.499971423298,2093.49996348843A6,6,0,1,1,3005.499971423298,2093.49996348843A6,6,0,1,1,3017.499971423298,2093.49996348843"></path><path id="kity_path_420" fill="none" stroke="gray"></path></g><path id="node_outline48" fill="none" stroke="none" d="M2490.4999830685556,2066.49996348843h510a5,5,0,0,1,5,5v44a5,5,0,0,1,-5,5h-510a5,5,0,0,1,-5,-5v-44a5,5,0,0,1,5,-5z" stroke-width="3"></path><g id="node_text48" fill="black"><text id="kity_text_223" text-rendering="inherit" font-size="48" dy=".8em" y="2069.49996348843" x="2490.4999830685556">bakalaureus ja magister</text></g></g><g id="minder_node14"><path id="kity_path_439" fill="rgba(0, 0, 0, .25)" stroke="none" d="M2261.9999937303364,-16.499994847923517h0a251,251,0,0,1,251,251v0a251,251,0,0,1,-251,251h0a251,251,0,0,1,-251,-251v0a251,251,0,0,1,251,-251z" display="none"></path><g id="node_expander8" style="cursor: pointer;" display="none"><path id="kity_path_302" fill="white" stroke="gray" d="M2519.4999825544655,229.50000515207648A6,6,0,1,1,2507.4999825544655,229.50000515207648A6,6,0,1,1,2519.4999825544655,229.50000515207648"></path><path id="kity_path_303" fill="none" stroke="gray"></path></g><path id="node_outline9" fill="none" stroke="none" d="M2013.4999937303364,202.50000515207648h489a5,5,0,0,1,5,5v44a5,5,0,0,1,-5,5h-489a5,5,0,0,1,-5,-5v-44a5,5,0,0,1,5,-5z" stroke-width="3"></path><g id="node_text9" fill="black"><text id="kity_text_145" text-rendering="inherit" font-size="48" dy=".8em" y="205.50000515207648" x="2013.4999937303364">Eesti Kunstiakadeemia</text></g></g><g id="minder_node15"><path id="kity_path_440" fill="rgba(0, 0, 0, .25)" stroke="none" d="M2331.4999906234443,114.50000376626849h0a182,182,0,0,1,182,182v0a182,182,0,0,1,-182,182h0a182,182,0,0,1,-182,-182v0a182,182,0,0,1,182,-182z" display="none"></path><g id="node_expander9" style="cursor: pointer;" display="none"><path id="kity_path_305" fill="white" stroke="gray" d="M2519.4999825544655,291.5000037662685A6,6,0,1,1,2507.4999825544655,291.5000037662685A6,6,0,1,1,2519.4999825544655,291.5000037662685"></path><path id="kity_path_306" fill="none" stroke="gray"></path></g><path id="node_outline10" fill="none" stroke="none" d="M2152.4999906234443,264.5000037662685h350a5,5,0,0,1,5,5v44a5,5,0,0,1,-5,5h-350a5,5,0,0,1,-5,-5v-44a5,5,0,0,1,5,-5z" stroke-width="3"></path><g id="node_text10" fill="black"><text id="kity_text_147" text-rendering="inherit" font-size="48" dy=".8em" y="267.5000037662685" x="2152.4999906234443">Eesti Maaülikool</text></g></g><g id="minder_node16"><path id="kity_path_441" fill="rgba(0, 0, 0, .25)" stroke="none" d="M2141.499999117106,-12.4999976195395h0a371,371,0,0,1,371,371v0a371,371,0,0,1,-371,371h0a371,371,0,0,1,-371,-371v0a371,371,0,0,1,371,-371z" display="none"></path><g id="node_expander10" style="cursor: pointer;" display="none"><path id="kity_path_308" fill="white" stroke="gray" d="M2519.4999825544655,353.5000023804605A6,6,0,1,1,2507.4999825544655,353.5000023804605A6,6,0,1,1,2519.4999825544655,353.5000023804605"></path><path id="kity_path_309" fill="none" stroke="gray"></path></g><path id="node_outline11" fill="none" stroke="none" d="M1772.4999991171062,326.5000023804605h730a5,5,0,0,1,5,5v44a5,5,0,0,1,-5,5h-730a5,5,0,0,1,-5,-5v-44a5,5,0,0,1,5,-5z" stroke-width="3"></path><g id="node_text11" fill="black"><text id="kity_text_149" text-rendering="inherit" font-size="48" dy=".8em" y="329.5000023804605" x="1772.4999991171062">Eesti Muusika- ja Teatriakadeemia</text></g></g><g id="minder_node17"><path id="kity_path_442" fill="rgba(0, 0, 0, .25)" stroke="none" d="M2267.9999934621155,175.5000009946525h0a245,245,0,0,1,245,245v0a245,245,0,0,1,-245,245h0a245,245,0,0,1,-245,-245v0a245,245,0,0,1,245,-245z" display="none"></path><g id="node_expander11" style="cursor: pointer;" display="none"><path id="kity_path_311" fill="white" stroke="gray" d="M2519.4999825544655,415.5000009946525A6,6,0,1,1,2507.4999825544655,415.5000009946525A6,6,0,1,1,2519.4999825544655,415.5000009946525"></path><path id="kity_path_312" fill="none" stroke="gray"></path></g><path id="node_outline12" fill="none" stroke="none" d="M2025.4999934621155,388.5000009946525h477a5,5,0,0,1,5,5v44a5,5,0,0,1,-5,5h-477a5,5,0,0,1,-5,-5v-44a5,5,0,0,1,5,-5z" stroke-width="3"></path><g id="node_text12" fill="black"><text id="kity_text_151" text-rendering="inherit" font-size="48" dy=".8em" y="391.5000009946525" x="2025.4999934621155">Tallinna Tehnikaülikool</text></g></g><g id="minder_node18"><path id="kity_path_443" fill="rgba(0, 0, 0, .25)" stroke="none" d="M2374.4999887011945,342.4999996088445h0a140,140,0,0,1,140,140v0a140,140,0,0,1,-140,140h0a140,140,0,0,1,-140,-140v0a140,140,0,0,1,140,-140z" display="none"></path><g id="node_expander12" style="cursor: pointer;" display="none"><path id="kity_path_314" fill="white" stroke="gray" d="M2519.4999825544655,477.4999996088445A6,6,0,1,1,2507.4999825544655,477.4999996088445A6,6,0,1,1,2519.4999825544655,477.4999996088445"></path><path id="kity_path_315" fill="none" stroke="gray"></path></g><path id="node_outline13" fill="none" stroke="none" d="M2238.4999887011945,450.4999996088445h264a5,5,0,0,1,5,5v44a5,5,0,0,1,-5,5h-264a5,5,0,0,1,-5,-5v-44a5,5,0,0,1,5,-5z" stroke-width="3"></path><g id="node_text13" fill="black"><text id="kity_text_153" text-rendering="inherit" font-size="48" dy=".8em" y="453.4999996088445" x="2238.4999887011945">Tartu Ülikool</text></g></g><g id="minder_node21"><path id="kity_path_444" fill="rgba(0, 0, 0, .25)" stroke="none" d="M1503.5000103153288,309.4999982230365h0a235,235,0,0,1,235,235v0a235,235,0,0,1,-235,235h0a235,235,0,0,1,-235,-235v0a235,235,0,0,1,235,-235z" display="none"></path><g id="node_expander13" style="cursor: pointer;" display="none"><path id="kity_path_317" fill="white" stroke="gray" d="M1744.4999998770654,539.4999982230365A6,6,0,1,1,1732.4999998770654,539.4999982230365A6,6,0,1,1,1744.4999998770654,539.4999982230365"></path><path id="kity_path_318" fill="none" stroke="gray"></path></g><path id="node_outline14" fill="#00b0f0" stroke="none" d="M1271.5000103153288,512.4999982230365h456a5,5,0,0,1,5,5v44a5,5,0,0,1,-5,5h-456a5,5,0,0,1,-5,-5v-44a5,5,0,0,1,5,-5z" stroke-width="3"></path><g id="node_text14" fill="black"><text id="kity_text_155" text-rendering="inherit" font-size="48" dy=".8em" y="515.4999982230365" x="1271.5000103153288">digi- ja meediakultuur</text></g></g><g id="minder_node22"><path id="kity_path_445" fill="rgba(0, 0, 0, .25)" stroke="none" d="M1455.500012461096,324.49999683722854h0a282,282,0,0,1,282,282v0a282,282,0,0,1,-282,282h0a282,282,0,0,1,-282,-282v0a282,282,0,0,1,282,-282z" display="none"></path><g id="node_expander14" style="cursor: pointer;" display="none"><path id="kity_path_320" fill="white" stroke="gray" d="M1744.4999998770654,601.4999968372285A6,6,0,1,1,1732.4999998770654,601.4999968372285A6,6,0,1,1,1744.4999998770654,601.4999968372285"></path><path id="kity_path_321" fill="none" stroke="gray"></path></g><path id="node_outline15" fill="#ffff00" stroke="none" d="M1175.500012461096,574.4999968372285h552a5,5,0,0,1,5,5v44a5,5,0,0,1,-5,5h-552a5,5,0,0,1,-5,-5v-44a5,5,0,0,1,5,-5z" stroke-width="3"></path><g id="node_text15" fill="#000000"><text id="kity_text_157" text-rendering="inherit" font-size="48" dy=".8em" y="577.4999968372285" x="1175.500012461096">kultuurilised kompetentsid</text></g></g><g id="minder_node23"><path id="kity_path_446" fill="rgba(0, 0, 0, .25)" stroke="none" d="M1454.0000125281513,384.49999545142055h0a284,284,0,0,1,284,284v0a284,284,0,0,1,-284,284h0a284,284,0,0,1,-284,-284v0a284,284,0,0,1,284,-284z" display="none"></path><g id="node_expander15" style="cursor: pointer;" display="none"><path id="kity_path_323" fill="white" stroke="gray" d="M1744.4999998770654,663.4999954514205A6,6,0,1,1,1732.4999998770654,663.4999954514205A6,6,0,1,1,1744.4999998770654,663.4999954514205"></path><path id="kity_path_324" fill="none" stroke="gray"></path></g><path id="node_outline16" fill="#7030a0" stroke="rgb(57, 80, 96)" d="M1172.5000125281513,636.4999954514205h555a5,5,0,0,1,5,5v44a5,5,0,0,1,-5,5h-555a5,5,0,0,1,-5,-5v-44a5,5,0,0,1,5,-5z" stroke-width="3"></path><g id="node_text16" fill="#ffffff"><text id="kity_text_159" text-rendering="inherit" font-size="48" dy=".8em" y="639.4999954514205" x="1172.5000125281513">terve ja jätkusuutlik eluviis</text></g></g><g id="minder_node24"><path id="kity_path_447" fill="rgba(0, 0, 0, .25)" stroke="none" d="M1404.5000147409737,397.49999406561255h0a333,333,0,0,1,333,333v0a333,333,0,0,1,-333,333h0a333,333,0,0,1,-333,-333v0a333,333,0,0,1,333,-333z" display="none"></path><g id="node_expander16" style="cursor: pointer;" display="none"><path id="kity_path_326" fill="white" stroke="gray" d="M1744.4999998770654,725.4999940656126A6,6,0,1,1,1732.4999998770654,725.4999940656126A6,6,0,1,1,1744.4999998770654,725.4999940656126"></path><path id="kity_path_327" fill="none" stroke="gray"></path></g><path id="node_outline17" fill="#ff0000" stroke="none" d="M1073.5000147409737,698.4999940656126h654a5,5,0,0,1,5,5v44a5,5,0,0,1,-5,5h-654a5,5,0,0,1,-5,-5v-44a5,5,0,0,1,5,-5z" stroke-width="3"></path><g id="node_text17" fill="black"><text id="kity_text_161" text-rendering="inherit" font-size="48" dy=".8em" y="701.4999940656126" x="1073.5000147409737">ühiskond ja avatud valitsemine</text></g></g><g id="minder_node25"><path id="kity_path_448" fill="rgba(0, 0, 0, .25)" stroke="none" d="M1560.5000077672303,614.4999926798046h0a178,178,0,0,1,178,178v0a178,178,0,0,1,-178,178h0a178,178,0,0,1,-178,-178v0a178,178,0,0,1,178,-178z" display="none"></path><g id="node_expander17" style="cursor: pointer;" display="none"><path id="kity_path_329" fill="white" stroke="gray" d="M1744.4999998770654,787.4999926798046A6,6,0,1,1,1732.4999998770654,787.4999926798046A6,6,0,1,1,1744.4999998770654,787.4999926798046"></path><path id="kity_path_330" fill="none" stroke="gray"></path></g><path id="node_outline18" fill="#c0504d" stroke="none" d="M1385.5000077672303,760.4999926798046h342a5,5,0,0,1,5,5v44a5,5,0,0,1,-5,5h-342a5,5,0,0,1,-5,-5v-44a5,5,0,0,1,5,-5z" stroke-width="3"></path><g id="node_text18" fill="black"><text id="kity_text_163" text-rendering="inherit" font-size="48" dy=".8em" y="763.4999926798046" x="1385.5000077672303">haridusuuendus</text></g></g><g id="minder_node20"><path id="kity_path_449" fill="rgba(0, 0, 0, .25)" stroke="none" d="M1958.9999995417893,459.49999545142055h0a209,209,0,0,1,209,209v0a209,209,0,0,1,-209,209h0a209,209,0,0,1,-209,-209v0a209,209,0,0,1,209,-209z" display="none"></path><g id="node_expander18" style="cursor: pointer;"><path id="kity_path_332" fill="white" stroke="gray" d="M2173.499990288168,663.4999954514205A6,6,0,1,1,2161.499990288168,663.4999954514205A6,6,0,1,1,2173.499990288168,663.4999954514205"></path><path id="kity_path_333" fill="none" stroke="gray" d="M2162.999990288168,663.4999954514205L2171.999990288168,663.4999954514205"></path></g><path id="node_outline19" fill="none" stroke="none" d="M1753.4999995417893,636.4999954514205h403a5,5,0,0,1,5,5v44a5,5,0,0,1,-5,5h-403a5,5,0,0,1,-5,-5v-44a5,5,0,0,1,5,-5z" stroke-width="3"></path><g id="node_text19" fill="black"><text id="kity_text_165" text-rendering="inherit" font-size="48" dy=".8em" y="639.4999954514205" x="1753.4999995417893">Fookusvaldkonnad</text></g></g><g id="minder_node27"><path id="kity_path_450" fill="rgba(0, 0, 0, .25)" stroke="none" d="M1740.5000038333237,672.4999912939966h0a182,182,0,0,1,182,182v0a182,182,0,0,1,-182,182h0a182,182,0,0,1,-182,-182v0a182,182,0,0,1,182,-182z" display="none"></path><g id="node_expander19" style="cursor: pointer;" display="none"><path id="kity_path_335" fill="white" stroke="gray" d="M1928.499995764345,849.4999912939966A6,6,0,1,1,1916.499995764345,849.4999912939966A6,6,0,1,1,1928.499995764345,849.4999912939966"></path><path id="kity_path_336" fill="none" stroke="gray"></path></g><path id="node_outline20" fill="#c0504d" stroke="none" d="M1561.5000038333237,822.4999912939966h350a5,5,0,0,1,5,5v44a5,5,0,0,1,-5,5h-350a5,5,0,0,1,-5,-5v-44a5,5,0,0,1,5,-5z" stroke-width="3"></path><g id="node_text20" fill="black"><text id="kity_text_167" text-rendering="inherit" font-size="48" dy=".8em" y="825.4999912939966" x="1561.5000038333237">Haridusteaduste</text></g></g><g id="minder_node30"><path id="kity_path_451" fill="rgba(0, 0, 0, .25)" stroke="none" d="M429.00003791972995,522.4999898858368h0a395,395,0,0,1,395,395v0a395,395,0,0,1,-395,395h0a395,395,0,0,1,-395,-395v0a395,395,0,0,1,395,-395z" display="none"></path><g id="node_expander20" style="cursor: pointer;" display="none"><path id="kity_path_338" fill="white" stroke="gray" d="M830.5000203065574,912.4999898858368A6,6,0,1,1,818.5000203065574,912.4999898858368A6,6,0,1,1,830.5000203065574,912.4999898858368"></path><path id="kity_path_339" fill="none" stroke="gray"></path></g><path id="node_outline21" fill="#7030a0" stroke="rgb(57, 80, 96)" d="M36.50003791972995,885.4999898858368h777a5,5,0,0,1,5,5v44a5,5,0,0,1,-5,5h-777a5,5,0,0,1,-5,-5v-44a5,5,0,0,1,5,-5z" stroke-width="3"></path><g id="node_text21" fill="#ffffff"><text id="kity_text_169" text-rendering="inherit" font-size="48" dy=".8em" y="888.4999898858368" x="36.50003791972995">loodusteadused ja jätkusuutlik areng</text></g></g><g id="minder_node31"><path id="kity_path_452" fill="rgba(0, 0, 0, .25)" stroke="none" d="M456.0000367127359,611.4999885000288h0a368,368,0,0,1,368,368v0a368,368,0,0,1,-368,368h0a368,368,0,0,1,-368,-368v0a368,368,0,0,1,368,-368z" display="none"></path><g id="node_expander21" style="cursor: pointer;" display="none"><path id="kity_path_341" fill="white" stroke="gray" d="M830.5000203065574,974.4999885000288A6,6,0,1,1,818.5000203065574,974.4999885000288A6,6,0,1,1,830.5000203065574,974.4999885000288"></path><path id="kity_path_342" fill="none" stroke="gray"></path></g><path id="node_outline22" fill="none" stroke="none" d="M90.50003671273589,947.4999885000288h723a5,5,0,0,1,5,5v44a5,5,0,0,1,-5,5h-723a5,5,0,0,1,-5,-5v-44a5,5,0,0,1,5,-5z" stroke-width="3"></path><g id="node_text22" fill="black"><text id="kity_text_171" text-rendering="inherit" font-size="48" dy=".8em" y="950.4999885000288" x="90.50003671273589">psühholoogia ja käitumisteadused</text></g></g><g id="minder_node32"><path id="kity_path_453" fill="rgba(0, 0, 0, .25)" stroke="none" d="M423.5000381655991,641.4999871142209h0a400,400,0,0,1,400,400v0a400,400,0,0,1,-400,400h0a400,400,0,0,1,-400,-400v0a400,400,0,0,1,400,-400z" display="none"></path><g id="node_expander22" style="cursor: pointer;" display="none"><path id="kity_path_344" fill="white" stroke="gray" d="M830.5000203065574,1036.4999871142209A6,6,0,1,1,818.5000203065574,1036.4999871142209A6,6,0,1,1,830.5000203065574,1036.4999871142209"></path><path id="kity_path_345" fill="none" stroke="gray"></path></g><path id="node_outline23" fill="none" stroke="none" d="M25.500038165599108,1009.4999871142209h788a5,5,0,0,1,5,5v44a5,5,0,0,1,-5,5h-788a5,5,0,0,1,-5,-5v-44a5,5,0,0,1,5,-5z" stroke-width="3"></path><g id="node_text23" fill="black"><text id="kity_text_173" text-rendering="inherit" font-size="48" dy=".8em" y="1012.4999871142209" x="25.500038165599108">loodusainete ja tehnoloogia didaktika</text></g></g><g id="minder_node33"><path id="kity_path_454" fill="rgba(0, 0, 0, .25)" stroke="none" d="M442.5000373162329,722.4999857284129h0a381,381,0,0,1,381,381v0a381,381,0,0,1,-381,381h0a381,381,0,0,1,-381,-381v0a381,381,0,0,1,381,-381z" display="none"></path><g id="node_expander23" style="cursor: pointer;" display="none"><path id="kity_path_347" fill="white" stroke="gray" d="M830.5000203065574,1098.4999857284129A6,6,0,1,1,818.5000203065574,1098.4999857284129A6,6,0,1,1,830.5000203065574,1098.4999857284129"></path><path id="kity_path_348" fill="none" stroke="gray"></path></g><path id="node_outline24" fill="none" stroke="none" d="M63.50003731623292,1071.4999857284129h750a5,5,0,0,1,5,5v44a5,5,0,0,1,-5,5h-750a5,5,0,0,1,-5,-5v-44a5,5,0,0,1,5,-5z" stroke-width="3"></path><g id="node_text24" fill="black"><text id="kity_text_175" text-rendering="inherit" font-size="48" dy=".8em" y="1074.4999857284129" x="63.50003731623292">liikumis-, tervise- ja sporditeadused</text></g></g><g id="minder_node29"><path id="kity_path_455" fill="rgba(0, 0, 0, .25)" stroke="none" d="M1085.0000199712813,762.4999878071249h0a248,248,0,0,1,248,248v0a248,248,0,0,1,-248,248h0a248,248,0,0,1,-248,-248v0a248,248,0,0,1,248,-248z" display="none"></path><g id="node_expander24" style="cursor: pointer;"><path id="kity_path_350" fill="white" stroke="gray" d="M1339.5000089295208,1005.4999878071249A6,6,0,1,1,1327.5000089295208,1005.4999878071249A6,6,0,1,1,1339.5000089295208,1005.4999878071249"></path><path id="kity_path_351" fill="none" stroke="gray" d="M1329.0000089295208,1005.4999878071249L1338.0000089295208,1005.4999878071249"></path></g><path id="node_outline25" fill="none" stroke="none" d="M839.5000199712813,978.4999878071249h483a5,5,0,0,1,5,5v44a5,5,0,0,1,-5,5h-483a5,5,0,0,1,-5,-5v-44a5,5,0,0,1,5,-5z" stroke-width="3"></path><g id="node_text25" fill="black"><text id="kity_text_177" text-rendering="inherit" font-size="48" dy=".8em" y="981.4999878071249" x="839.5000199712813">Akadeemilised suunad</text></g></g><g id="minder_node35"><path id="kity_path_456" fill="rgba(0, 0, 0, .25)" stroke="none" d="M1055.5000173784792,1060.4999843426049h0a105,105,0,0,1,105,105v0a105,105,0,0,1,-105,105h0a105,105,0,0,1,-105,-105v0a105,105,0,0,1,105,-105z" display="none"></path><g id="node_expander25" style="cursor: pointer;" display="none"><path id="kity_path_353" fill="white" stroke="gray" d="M1164.5000128410757,1160.4999843426049A6,6,0,1,1,1152.5000128410757,1160.4999843426049A6,6,0,1,1,1164.5000128410757,1160.4999843426049"></path><path id="kity_path_354" fill="none" stroke="gray"></path></g><path id="node_outline26" fill="none" stroke="none" d="M955.5000173784792,1133.4999843426049h192a5,5,0,0,1,5,5v44a5,5,0,0,1,-5,5h-192a5,5,0,0,1,-5,-5v-44a5,5,0,0,1,5,-5z" stroke-width="3"></path><g id="node_text26" fill="black"><text id="kity_text_179" text-rendering="inherit" font-size="48" dy=".8em" y="1136.4999843426049" x="955.5000173784792">bioloogia</text></g></g><g id="minder_node36"><path id="kity_path_457" fill="rgba(0, 0, 0, .25)" stroke="none" d="M915.500023636967,984.4999829567969h0a243,243,0,0,1,243,243v0a243,243,0,0,1,-243,243h0a243,243,0,0,1,-243,-243v0a243,243,0,0,1,243,-243z" display="none"></path><g id="node_expander26" style="cursor: pointer;" display="none"><path id="kity_path_356" fill="white" stroke="gray" d="M1164.5000128410757,1222.4999829567969A6,6,0,1,1,1152.5000128410757,1222.4999829567969A6,6,0,1,1,1164.5000128410757,1222.4999829567969"></path><path id="kity_path_357" fill="none" stroke="gray"></path></g><path id="node_outline27" fill="none" stroke="none" d="M675.500023636967,1195.4999829567969h472a5,5,0,0,1,5,5v44a5,5,0,0,1,-5,5h-472a5,5,0,0,1,-5,-5v-44a5,5,0,0,1,5,-5z" stroke-width="3"></path><g id="node_text27" fill="black"><text id="kity_text_181" text-rendering="inherit" font-size="48" dy=".8em" y="1198.4999829567969" x="675.500023636967">rekreatsioonikorraldus</text></g></g><g id="minder_node37"><path id="kity_path_458" fill="rgba(0, 0, 0, .25)" stroke="none" d="M1008.500019479543,1138.499981570989h0a151,151,0,0,1,151,151v0a151,151,0,0,1,-151,151h0a151,151,0,0,1,-151,-151v0a151,151,0,0,1,151,-151z" display="none"></path><g id="node_expander27" style="cursor: pointer;" display="none"><path id="kity_path_359" fill="white" stroke="gray" d="M1164.5000128410757,1284.499981570989A6,6,0,1,1,1152.5000128410757,1284.499981570989A6,6,0,1,1,1164.5000128410757,1284.499981570989"></path><path id="kity_path_360" fill="none" stroke="gray"></path></g><path id="node_outline28" fill="none" stroke="none" d="M861.500019479543,1257.499981570989h286a5,5,0,0,1,5,5v44a5,5,0,0,1,-5,5h-286a5,5,0,0,1,-5,-5v-44a5,5,0,0,1,5,-5z" stroke-width="3"></path><g id="node_text28" fill="black"><text id="kity_text_183" text-rendering="inherit" font-size="48" dy=".8em" y="1260.499981570989" x="861.500019479543">psühholoogia</text></g></g><g id="minder_node38"><path id="kity_path_459" fill="rgba(0, 0, 0, .25)" stroke="none" d="M1027.5000186301768,1219.499980185181h0a132,132,0,0,1,132,132v0a132,132,0,0,1,-132,132h0a132,132,0,0,1,-132,-132v0a132,132,0,0,1,132,-132z" display="none"></path><g id="node_expander28" style="cursor: pointer;" display="none"><path id="kity_path_362" fill="white" stroke="gray" d="M1164.5000128410757,1346.499980185181A6,6,0,1,1,1152.5000128410757,1346.499980185181A6,6,0,1,1,1164.5000128410757,1346.499980185181"></path><path id="kity_path_363" fill="none" stroke="gray"></path></g><path id="node_outline29" fill="none" stroke="none" d="M899.5000186301768,1319.499980185181h248a5,5,0,0,1,5,5v44a5,5,0,0,1,-5,5h-248a5,5,0,0,1,-5,-5v-44a5,5,0,0,1,5,-5z" stroke-width="3"></path><g id="node_text29" fill="black"><text id="kity_text_185" text-rendering="inherit" font-size="48" dy=".8em" y="1322.499980185181" x="899.5000186301768">kehakultuur</text></g></g><g id="minder_node39"><path id="kity_path_460" fill="rgba(0, 0, 0, .25)" stroke="none" d="M842.000026922673,1097.499978799373h0a316,316,0,0,1,316,316v0a316,316,0,0,1,-316,316h0a316,316,0,0,1,-316,-316v0a316,316,0,0,1,316,-316z" display="none"></path><g id="node_expander29" style="cursor: pointer;" display="none"><path id="kity_path_365" fill="white" stroke="gray" d="M1164.5000128410757,1408.499978799373A6,6,0,1,1,1152.5000128410757,1408.499978799373A6,6,0,1,1,1164.5000128410757,1408.499978799373"></path><path id="kity_path_366" fill="none" stroke="gray"></path></g><path id="node_outline30" fill="#7030a0" stroke="rgb(57, 80, 96)" d="M528.500026922673,1381.499978799373h619a5,5,0,0,1,5,5v44a5,5,0,0,1,-5,5h-619a5,5,0,0,1,-5,-5v-44a5,5,0,0,1,5,-5z" stroke-width="3"></path><g id="node_text30" fill="#ffffff"><text id="kity_text_187" text-rendering="inherit" font-size="48" dy=".8em" y="1384.499978799373" x="528.500026922673">integreeritud loodusteadused</text></g></g><g id="minder_node34"><path id="kity_path_461" fill="rgba(0, 0, 0, .25)" stroke="none" d="M1252.0000125057995,1204.499981570989h0a85,85,0,0,1,85,85v0a85,85,0,0,1,-85,85h0a85,85,0,0,1,-85,-85v0a85,85,0,0,1,85,-85z" display="none"></path><g id="node_expander30" style="cursor: pointer;"><path id="kity_path_368" fill="white" stroke="gray" d="M1339.5000089295208,1284.499981570989A6,6,0,1,1,1327.5000089295208,1284.499981570989A6,6,0,1,1,1339.5000089295208,1284.499981570989"></path><path id="kity_path_369" fill="none" stroke="gray" d="M1329.0000089295208,1284.499981570989L1338.0000089295208,1284.499981570989"></path></g><path id="node_outline31" fill="none" stroke="none" d="M1173.5000125057995,1257.499981570989h149a5,5,0,0,1,5,5v44a5,5,0,0,1,-5,5h-149a5,5,0,0,1,-5,-5v-44a5,5,0,0,1,5,-5z" stroke-width="3"></path><g id="node_text31" fill="black"><text id="kity_text_189" text-rendering="inherit" font-size="48" dy=".8em" y="1260.499981570989" x="1173.5000125057995">Erialad</text></g></g><g id="minder_node28"><path id="kity_path_462" fill="rgba(0, 0, 0, .25)" stroke="none" d="M1634.0000085942447,861.4999847002327h0a288,288,0,0,1,288,288v0a288,288,0,0,1,-288,288h0a288,288,0,0,1,-288,-288v0a288,288,0,0,1,288,-288z" display="none"></path><g id="node_expander31" style="cursor: pointer;"><path id="kity_path_371" fill="white" stroke="gray" d="M1928.499995764345,1144.4999847002327A6,6,0,1,1,1916.499995764345,1144.4999847002327A6,6,0,1,1,1928.499995764345,1144.4999847002327"></path><path id="kity_path_372" fill="none" stroke="gray" d="M1917.999995764345,1144.4999847002327L1926.999995764345,1144.4999847002327"></path></g><path id="node_outline32" fill="#7030a0" stroke="rgb(57, 80, 96)" d="M1348.5000085942447,1117.4999847002327h563a5,5,0,0,1,5,5v44a5,5,0,0,1,-5,5h-563a5,5,0,0,1,-5,-5v-44a5,5,0,0,1,5,-5z" stroke-width="3"></path><g id="node_text32" fill="#ffffff"><text id="kity_text_191" text-rendering="inherit" font-size="48" dy=".8em" y="1120.4999847002327" x="1348.5000085942447">Loodus- ja terviseteaduste</text></g></g><g id="minder_node40"><path id="kity_path_463" fill="rgba(0, 0, 0, .25)" stroke="none" d="M1606.0000098459423,1158.4999774359167h0a316,316,0,0,1,316,316v0a316,316,0,0,1,-316,316h0a316,316,0,0,1,-316,-316v0a316,316,0,0,1,316,-316z" display="none"></path><g id="node_expander32" style="cursor: pointer;" display="none"><path id="kity_path_374" fill="white" stroke="gray" d="M1928.499995764345,1469.4999774359167A6,6,0,1,1,1916.499995764345,1469.4999774359167A6,6,0,1,1,1928.499995764345,1469.4999774359167"></path><path id="kity_path_375" fill="none" stroke="gray"></path></g><path id="node_outline33" fill="#00b0f0" stroke="none" d="M1292.5000098459423,1442.4999774359167h619a5,5,0,0,1,5,5v44a5,5,0,0,1,-5,5h-619a5,5,0,0,1,-5,-5v-44a5,5,0,0,1,5,-5z" stroke-width="3"></path><g id="node_text33" fill="black"><text id="kity_text_193" text-rendering="inherit" font-size="48" dy=".8em" y="1445.4999774359167" x="1292.5000098459423">Balti filmi, meedia ja kunstide</text></g></g><g id="minder_node41"><path id="kity_path_464" fill="rgba(0, 0, 0, .25)" stroke="none" d="M1699.5000056661665,1313.4999760501087h0a223,223,0,0,1,223,223v0a223,223,0,0,1,-223,223h0a223,223,0,0,1,-223,-223v0a223,223,0,0,1,223,-223z" display="none"></path><g id="node_expander33" style="cursor: pointer;" display="none"><path id="kity_path_377" fill="white" stroke="gray" d="M1928.499995764345,1531.4999760501087A6,6,0,1,1,1916.499995764345,1531.4999760501087A6,6,0,1,1,1928.499995764345,1531.4999760501087"></path><path id="kity_path_378" fill="none" stroke="gray"></path></g><path id="node_outline34" fill="#ffff00" stroke="none" d="M1479.5000056661665,1504.4999760501087h432a5,5,0,0,1,5,5v44a5,5,0,0,1,-5,5h-432a5,5,0,0,1,-5,-5v-44a5,5,0,0,1,5,-5z" stroke-width="3"></path><g id="node_text34" fill="#000000"><text id="kity_text_195" text-rendering="inherit" font-size="48" dy=".8em" y="1507.4999760501087" x="1479.5000056661665">Humanitaarteaduste</text></g></g><g id="minder_node42"><path id="kity_path_465" fill="rgba(0, 0, 0, .25)" stroke="none" d="M1710.00000519678,1386.4999746643007h0a212,212,0,0,1,212,212v0a212,212,0,0,1,-212,212h0a212,212,0,0,1,-212,-212v0a212,212,0,0,1,212,-212z" display="none"></path><g id="node_expander34" style="cursor: pointer;" display="none"><path id="kity_path_380" fill="white" stroke="gray" d="M1928.499995764345,1593.4999746643007A6,6,0,1,1,1916.499995764345,1593.4999746643007A6,6,0,1,1,1928.499995764345,1593.4999746643007"></path><path id="kity_path_381" fill="none" stroke="gray"></path></g><path id="node_outline35" fill="#ff0000" stroke="none" d="M1500.50000519678,1566.4999746643007h411a5,5,0,0,1,5,5v44a5,5,0,0,1,-5,5h-411a5,5,0,0,1,-5,-5v-44a5,5,0,0,1,5,-5z" stroke-width="3"></path><g id="node_text35" fill="black"><text id="kity_text_197" text-rendering="inherit" font-size="48" dy=".8em" y="1569.4999746643007" x="1500.50000519678">Ühiskonnateaduste</text></g></g><g id="minder_node43"><path id="kity_path_466" fill="rgba(0, 0, 0, .25)" stroke="none" d="M1730.0000043027103,1467.4999732784927h0a193,193,0,0,1,193,193v0a193,193,0,0,1,-193,193h0a193,193,0,0,1,-193,-193v0a193,193,0,0,1,193,-193z" display="none"></path><g id="node_expander35" style="cursor: pointer;" display="none"><path id="kity_path_383" fill="white" stroke="gray" d="M1928.499995764345,1655.4999732784927A6,6,0,1,1,1916.499995764345,1655.4999732784927A6,6,0,1,1,1928.499995764345,1655.4999732784927"></path><path id="kity_path_384" fill="none" stroke="gray"></path></g><path id="node_outline36" fill="none" stroke="none" d="M1540.5000043027103,1628.4999732784927h371a5,5,0,0,1,5,5v44a5,5,0,0,1,-5,5h-371a5,5,0,0,1,-5,-5v-44a5,5,0,0,1,5,-5z" stroke-width="3"></path><g id="node_text36" fill="black"><text id="kity_text_199" text-rendering="inherit" font-size="48" dy=".8em" y="1631.4999732784927" x="1540.5000043027103">Digitehnoloogiate</text></g></g><g id="minder_node26"><path id="kity_path_467" fill="rgba(0, 0, 0, .25)" stroke="none" d="M2050.999995429069,1139.4999822862446h0a118,118,0,0,1,118,118v0a118,118,0,0,1,-118,118h0a118,118,0,0,1,-118,-118v0a118,118,0,0,1,118,-118z" display="none"></path><g id="node_expander36" style="cursor: pointer;"><path id="kity_path_386" fill="white" stroke="gray" d="M2173.499990288168,1252.4999822862446A6,6,0,1,1,2161.499990288168,1252.4999822862446A6,6,0,1,1,2173.499990288168,1252.4999822862446"></path><path id="kity_path_387" fill="none" stroke="gray" d="M2162.999990288168,1252.4999822862446L2171.999990288168,1252.4999822862446"></path></g><path id="node_outline37" fill="none" stroke="none" d="M1937.4999954290688,1225.4999822862446h219a5,5,0,0,1,5,5v44a5,5,0,0,1,-5,5h-219a5,5,0,0,1,-5,-5v-44a5,5,0,0,1,5,-5z" stroke-width="3"></path><g id="node_text37" fill="black"><text id="kity_text_201" text-rendering="inherit" font-size="48" dy=".8em" y="1228.4999822862446" x="1937.4999954290688">Instituudid</text></g></g><g id="minder_node44"><path id="kity_path_468" fill="rgba(0, 0, 0, .25)" stroke="none" d="M2085.999993864447,1637.4999718926847h0a85,85,0,0,1,85,85v0a85,85,0,0,1,-85,85h0a85,85,0,0,1,-85,-85v0a85,85,0,0,1,85,-85z" display="none"></path><g id="node_expander37" style="cursor: pointer;" display="none"><path id="kity_path_389" fill="white" stroke="gray" d="M2173.499990288168,1717.4999718926847A6,6,0,1,1,2161.499990288168,1717.4999718926847A6,6,0,1,1,2173.499990288168,1717.4999718926847"></path><path id="kity_path_390" fill="none" stroke="gray"></path></g><path id="node_outline38" fill="none" stroke="none" d="M2007.4999938644469,1690.4999718926847h149a5,5,0,0,1,5,5v44a5,5,0,0,1,-5,5h-149a5,5,0,0,1,-5,-5v-44a5,5,0,0,1,5,-5z" stroke-width="3"></path><g id="node_text38" fill="black"><text id="kity_text_203" text-rendering="inherit" font-size="48" dy=".8em" y="1693.4999718926847" x="2007.4999938644469">kolledž</text></g></g><g id="minder_node19"><path id="kity_path_469" fill="rgba(0, 0, 0, .25)" stroke="none" d="M2346.499989952892,1027.4999836720526h0a168,168,0,0,1,168,168v0a168,168,0,0,1,-168,168h0a168,168,0,0,1,-168,-168v0a168,168,0,0,1,168,-168z" display="none"></path><g id="node_expander38" style="cursor: pointer;"><path id="kity_path_392" fill="white" stroke="gray" d="M2519.4999825544655,1190.4999836720526A6,6,0,1,1,2507.4999825544655,1190.4999836720526A6,6,0,1,1,2519.4999825544655,1190.4999836720526"></path><path id="kity_path_393" fill="none" stroke="gray" d="M2508.9999825544655,1190.4999836720526L2517.9999825544655,1190.4999836720526"></path></g><path id="node_outline39" fill="#7030a0" stroke="rgb(57, 80, 96)" d="M2182.499989952892,1163.4999836720526h320a5,5,0,0,1,5,5v44a5,5,0,0,1,-5,5h-320a5,5,0,0,1,-5,-5v-44a5,5,0,0,1,5,-5z" stroke-width="3"></path><g id="node_text39" fill="#ffffff"><text id="kity_text_205" text-rendering="inherit" font-size="48" dy=".8em" y="1166.4999836720526" x="2182.499989952892">Tallinna Ülikool</text></g></g><g id="minder_node13"><path id="kity_path_470" fill="rgba(0, 0, 0, .25)" stroke="none" d="M2708.4999822191894,531.4999944232404h0a183,183,0,0,1,183,183v0a183,183,0,0,1,-183,183h0a183,183,0,0,1,-183,-183v0a183,183,0,0,1,183,-183z" display="none"></path><g id="node_expander39" style="cursor: pointer;"><path id="kity_path_395" fill="white" stroke="gray" d="M2897.499974105507,709.4999944232404A6,6,0,1,1,2885.499974105507,709.4999944232404A6,6,0,1,1,2897.499974105507,709.4999944232404"></path><path id="kity_path_396" fill="none" stroke="gray" d="M2886.999974105507,709.4999944232404L2895.999974105507,709.4999944232404"></path></g><path id="node_outline40" fill="#7030a0" stroke="rgb(57, 80, 96)" d="M2528.4999822191894,682.4999944232404h352a5,5,0,0,1,5,5v44a5,5,0,0,1,-5,5h-352a5,5,0,0,1,-5,-5v-44a5,5,0,0,1,5,-5z" stroke-width="3"></path><g id="node_text40" fill="#ffffff"><text id="kity_text_207" text-rendering="inherit" font-size="48" dy=".8em" y="685.4999944232404" x="2528.4999822191894">avalik-õiguslikud</text></g></g><g id="minder_node45"><path id="kity_path_471" fill="rgba(0, 0, 0, .25)" stroke="none" d="M2841.9999762512743,1728.4999705068767h0a56,56,0,0,1,56,56v0a56,56,0,0,1,-56,56h0a56,56,0,0,1,-56,-56v0a56,56,0,0,1,56,-56z" display="none"></path><g id="node_expander40" style="cursor: pointer;" display="none"><path id="kity_path_398" fill="white" stroke="gray" d="M2897.499974105507,1779.4999705068767A6,6,0,1,1,2885.499974105507,1779.4999705068767A6,6,0,1,1,2897.499974105507,1779.4999705068767"></path><path id="kity_path_399" fill="none" stroke="gray"></path></g><path id="node_outline41" fill="none" stroke="none" d="M2795.4999762512743,1752.4999705068767h85a5,5,0,0,1,5,5v44a5,5,0,0,1,-5,5h-85a5,5,0,0,1,-5,-5v-44a5,5,0,0,1,5,-5z" stroke-width="3"></path><g id="node_text41" fill="black"><text id="kity_text_209" text-rendering="inherit" font-size="48" dy=".8em" y="1755.4999705068767" x="2795.4999762512743">era-</text></g></g></g></g></svg>