<svg id="kity_svg_6" xmlns="http://www.w3.org/2000/svg" xmlns:xlink="http://www.w3.org/1999/xlink" version="1.1" width="3914" height="787" style="background: rgb(251, 251, 251); visibility: visible;" viewBox="0 0 3914 787"><defs id="kity_defs_7"><linearGradient id="kity_linearGradient_17" x1="0" y1="0" x2="0" y2="1"><stop id="kity_stop_18" offset="0" stop-color="rgb(255, 255, 255)"></stop><stop id="kity_stop_19" offset="1" stop-color="rgb(204, 204, 204)"></stop></linearGradient><marker id="kity_marker_2" orient="auto" refX="6" refY="0" viewBox="-7 -7 14 14" markerWidth="7" markerHeight="7" markerUnits="userSpaceOnUse"><path id="kity_path_3" fill="rgb(115, 161, 191)" stroke="none" d="M6,0A6,6,0,1,1,-6,0A6,6,0,1,1,6,0"></path></marker></defs><g id="kity_g_8"><g id="minder1" text-rendering="geometricPrecision"><g id="minder_connect_group1"><path id="kity_path_31" fill="none" stroke="rgb(115, 161, 191)" stroke-width="1" d="M1400.999983984977,317.4999883659184A233.5,266,0,0,1,1634.499983984977,51.4999883659184"></path><path id="kity_path_39" fill="none" stroke="rgb(115, 161, 191)" stroke-width="1" d="M1400.999983984977,317.4999883659184A233.5,190,0,0,1,1634.499983984977,127.4999883659184"></path><path id="kity_path_47" fill="none" stroke="rgb(115, 161, 191)" stroke-width="1" d="M1400.999983984977,317.4999883659184A233.5,114,0,0,1,1634.499983984977,203.4999883659184"></path><path id="kity_path_55" fill="none" stroke="rgb(115, 161, 191)" stroke-width="1" d="M1400.999983984977,317.4999883659184A233.5,38,0,0,1,1634.499983984977,279.4999883659184"></path><path id="kity_path_71" fill="none" stroke="rgb(115, 161, 191)" stroke-width="1" d="M1400.999983984977,317.4999883659184A233.5,38,0,0,0,1634.499983984977,355.4999883659184"></path><path id="kity_path_79" fill="none" stroke="rgb(115, 161, 191)" stroke-width="1" d="M1400.999983984977,317.4999883659184A233.5,266,0,0,0,1634.499983984977,583.4999883659184"></path><path id="kity_path_87" fill="none" stroke="rgb(115, 161, 191)" stroke-width="1" d="M1400.999983984977,317.4999883659184A233.5,152,0,0,0,1167.499983984977,165.4999883659184"></path><path id="kity_path_95" fill="none" stroke="rgb(115, 161, 191)" stroke-width="1" d="M1400.999983984977,317.4999883659184A233.5,76,0,0,0,1167.499983984977,241.4999883659184"></path><path id="kity_path_103" fill="none" stroke="rgb(115, 161, 191)" stroke-width="1" d="M1400.999983984977,317.4999883659184A233.5,0,0,0,1,1167.499983984977,317.4999883659184"></path><path id="kity_path_111" fill="none" stroke="rgb(115, 161, 191)" stroke-width="1" d="M1400.999983984977,317.4999883659184A233.5,76,0,0,1,1167.499983984977,393.4999883659184"></path><path id="kity_path_119" fill="none" stroke="rgb(115, 161, 191)" stroke-width="1" d="M1400.999983984977,317.4999883659184A233.5,152,0,0,1,1167.499983984977,469.4999883659184"></path><path id="kity_path_127" fill="none" stroke="rgb(115, 161, 191)" stroke-width="1" d="M2567.499983984977,583.4999883659184C2570.499983984977,583.4999883659184,2570.499983984977,458.4999883659184,2573.499983984977,458.4999883659184L3370.499983984977,458.4999883659184"></path><path id="kity_path_135" fill="none" stroke="rgb(115, 161, 191)" stroke-width="1" d="M2567.499983984977,583.4999883659184C2570.499983984977,583.4999883659184,2570.499983984977,598.4999883659184,2573.499983984977,598.4999883659184L2796.499983984977,598.4999883659184"></path><path id="kity_path_143" fill="none" stroke="rgb(115, 161, 191)" stroke-width="1" d="M2567.499983984977,583.4999883659184C2570.499983984977,583.4999883659184,2570.499983984977,706.4999883659184,2573.499983984977,706.4999883659184L3055.499983984977,706.4999883659184"></path><path id="kity_path_151" fill="none" stroke="rgb(115, 161, 191)" stroke-width="1" d="M2567.499983984977,583.4999883659184C2570.499983984977,583.4999883659184,2570.499983984977,768.4999883659184,2573.499983984977,768.4999883659184L3119.499983984977,768.4999883659184"></path><path id="kity_path_167" fill="none" stroke="rgb(115, 161, 191)" stroke-width="1" d="M2796.499983984977,598.4999883659184C2799.499983984977,598.4999883659184,2799.499983984977,552.4999883659184,2802.499983984977,552.4999883659184L3249.499983984977,552.4999883659184"></path><path id="kity_path_175" fill="none" stroke="rgb(115, 161, 191)" stroke-width="1" d="M2796.499983984977,598.4999883659184C2799.499983984977,598.4999883659184,2799.499983984977,645.4999883659184,2802.499983984977,645.4999883659184L3460.499983984977,645.4999883659184"></path><path id="kity_path_183" fill="none" stroke="rgb(115, 161, 191)" stroke-width="1" d="M3249.499983984977,552.4999883659184C3252.499983984977,552.4999883659184,3252.499983984977,521.4999883659184,3255.499983984977,521.4999883659184L3561.499983984977,521.4999883659184"></path><path id="kity_path_191" fill="none" stroke="rgb(115, 161, 191)" stroke-width="1" d="M3249.499983984977,552.4999883659184C3252.499983984977,552.4999883659184,3252.499983984977,583.4999883659184,3255.499983984977,583.4999883659184L3894.499983984977,583.4999883659184"></path></g><g id="minder_node1"><path id="node_outline1" fill="rgb(115, 161, 191)" stroke="rgb(57, 80, 96)" d="M1188.499983984977,287.4999883659184h425a5,5,0,0,1,5,5v50a5,5,0,0,1,-5,5h-425a5,5,0,0,1,-5,-5v-50a5,5,0,0,1,5,-5z" stroke-width="3"></path><g id="node_text1" fill="white"><text id="kity_text_22" text-rendering="inherit" font-size="48" dy=".8em" y="293.4999883659184" x="1195.499983984977">Haridusvaldkonnad</text></g></g><g id="kity_g_12"><path id="kity_path_13" fill="none" stroke="none" d="M1195.499983984977,317.4999883659184h0v0h0z"></path></g><g id="kity_g_14"><path id="kity_path_15" fill="none" stroke="none" d="M1195.499983984977,317.4999883659184h0v0h0z"></path><path id="kity_path_16" fill="none" stroke="none"></path></g><g id="minder_node2"><g id="node_expander1" style="cursor: pointer;" display="none"><path id="kity_path_36" fill="white" stroke="gray" d="M1635.499974284321,51.499994311481714A6,6,0,1,1,1623.499974284321,51.499994311481714A6,6,0,1,1,1635.499974284321,51.499994311481714"></path><path id="kity_path_37" fill="none" stroke="gray"></path></g><path id="node_outline2" fill="rgb(238, 243, 246)" stroke="rgb(57, 80, 96)" d="M1639.499973680824,21.499994311481714h754a3,3,0,0,1,3,3v54a3,3,0,0,1,-3,3h-754a3,3,0,0,1,-3,-3v-54a3,3,0,0,1,3,-3z" stroke-width="3"></path><g id="node_text2" fill="black"><text id="kity_text_33" text-rendering="inherit" font-size="48" dy=".8em" y="27.499994311481714" x="1656.499973680824">üldprogrammid ja kvalifikatsioonid</text></g></g><g id="minder_node3"><g id="node_expander2" style="cursor: pointer;" display="none"><path id="kity_path_44" fill="white" stroke="gray" d="M1635.499974284321,127.49999261274934A6,6,0,1,1,1623.499974284321,127.49999261274934A6,6,0,1,1,1635.499974284321,127.49999261274934"></path><path id="kity_path_45" fill="none" stroke="gray"></path></g><path id="node_outline3" fill="rgb(238, 243, 246)" stroke="rgb(57, 80, 96)" d="M1639.499973680824,97.49999261274934h528a3,3,0,0,1,3,3v54a3,3,0,0,1,-3,3h-528a3,3,0,0,1,-3,-3v-54a3,3,0,0,1,3,-3z" stroke-width="3"></path><g id="node_text3" fill="black"><text id="kity_text_41" text-rendering="inherit" font-size="48" dy=".8em" y="103.49999261274934" x="1656.499973680824">kunstid ja humanitaaria</text></g></g><g id="minder_node4"><g id="node_expander3" style="cursor: pointer;" display="none"><path id="kity_path_52" fill="white" stroke="gray" d="M1635.499974284321,203.49999091401696A6,6,0,1,1,1623.499974284321,203.49999091401696A6,6,0,1,1,1635.499974284321,203.49999091401696"></path><path id="kity_path_53" fill="none" stroke="gray"></path></g><path id="node_outline4" fill="rgb(238, 243, 246)" stroke="rgb(57, 80, 96)" d="M1639.499973680824,173.49999091401696h191a3,3,0,0,1,3,3v54a3,3,0,0,1,-3,3h-191a3,3,0,0,1,-3,-3v-54a3,3,0,0,1,3,-3z" stroke-width="3"></path><g id="node_text4" fill="black"><text id="kity_text_49" text-rendering="inherit" font-size="48" dy=".8em" y="179.49999091401696" x="1656.499973680824">haridus</text></g></g><g id="minder_node5"><g id="node_expander4" style="cursor: pointer;" display="none"><path id="kity_path_60" fill="white" stroke="gray" d="M1635.499974284321,279.4999892152846A6,6,0,1,1,1623.499974284321,279.4999892152846A6,6,0,1,1,1635.499974284321,279.4999892152846"></path><path id="kity_path_61" fill="none" stroke="gray" d="M1624.999974284321,279.4999892152846L1633.999974284321,279.4999892152846"></path></g><path id="node_outline5" fill="rgb(238, 243, 246)" stroke="rgb(57, 80, 96)" d="M1639.499973680824,249.4999892152846h859a3,3,0,0,1,3,3v54a3,3,0,0,1,-3,3h-859a3,3,0,0,1,-3,-3v-54a3,3,0,0,1,3,-3z" stroke-width="3"></path><g id="node_text5" fill="black"><text id="kity_text_57" text-rendering="inherit" font-size="48" dy=".8em" y="255.4999892152846" x="1656.499973680824">sotsiaalteadused, ajakirjandus ja teave</text></g></g><g id="minder_node7"><g id="node_expander6" style="cursor: pointer;" display="none"><path id="kity_path_76" fill="white" stroke="gray" d="M1635.499974284321,355.4999875165522A6,6,0,1,1,1623.499974284321,355.4999875165522A6,6,0,1,1,1635.499974284321,355.4999875165522"></path><path id="kity_path_77" fill="none" stroke="gray"></path></g><path id="node_outline7" fill="rgb(238, 243, 246)" stroke="rgb(57, 80, 96)" d="M1639.499973680824,325.4999875165522h538a3,3,0,0,1,3,3v54a3,3,0,0,1,-3,3h-538a3,3,0,0,1,-3,-3v-54a3,3,0,0,1,3,-3z" stroke-width="3"></path><g id="node_text7" fill="black"><text id="kity_text_73" text-rendering="inherit" font-size="48" dy=".8em" y="331.4999875165522" x="1656.499973680824">ärindus, haldus ja õigus</text></g></g><g id="minder_node8"><g id="node_expander7" style="cursor: pointer;"><path id="kity_path_84" fill="white" stroke="gray" d="M1635.499974284321,583.4999824203551A6,6,0,1,1,1623.499974284321,583.4999824203551A6,6,0,1,1,1635.499974284321,583.4999824203551"></path><path id="kity_path_85" fill="none" stroke="gray" d="M1624.999974284321,583.4999824203551L1633.999974284321,583.4999824203551"></path></g><path id="node_outline8" fill="#7030a0" stroke="rgb(57, 80, 96)" d="M1639.499973680824,553.4999824203551h925a3,3,0,0,1,3,3v54a3,3,0,0,1,-3,3h-925a3,3,0,0,1,-3,-3v-54a3,3,0,0,1,3,-3z" stroke-width="3"></path><g id="node_text8" fill="#ffffff"><text id="kity_text_81" text-rendering="inherit" font-size="48" dy=".8em" y="559.4999824203551" x="1656.499973680824">loodusteadused, matemaatika ja statistika</text></g></g><g id="minder_node9"><g id="node_expander8" style="cursor: pointer;" display="none"><path id="kity_path_92" fill="white" stroke="gray" d="M1178.499984499067,165.49999176338315A6,6,0,1,1,1166.499984499067,165.49999176338315A6,6,0,1,1,1178.499984499067,165.49999176338315"></path><path id="kity_path_93" fill="none" stroke="gray"></path></g><path id="node_outline9" fill="rgb(238, 243, 246)" stroke="rgb(57, 80, 96)" d="M90.50000830367208,135.49999176338315h1072a3,3,0,0,1,3,3v54a3,3,0,0,1,-3,3h-1072a3,3,0,0,1,-3,-3v-54a3,3,0,0,1,3,-3z" stroke-width="3"></path><g id="node_text9" fill="black"><text id="kity_text_89" text-rendering="inherit" font-size="48" dy=".8em" y="141.49999176338315" x="107.50000830367208">informatsiooni- ja kommunikatsioonitehnoloogiad</text></g></g><g id="minder_node10"><g id="node_expander9" style="cursor: pointer;" display="none"><path id="kity_path_100" fill="white" stroke="gray" d="M1178.499984499067,241.49999006465077A6,6,0,1,1,1166.499984499067,241.49999006465077A6,6,0,1,1,1178.499984499067,241.49999006465077"></path><path id="kity_path_101" fill="none" stroke="gray"></path></g><path id="node_outline10" fill="rgb(238, 243, 246)" stroke="rgb(57, 80, 96)" d="M570.499997574836,211.49999006465077h592a3,3,0,0,1,3,3v54a3,3,0,0,1,-3,3h-592a3,3,0,0,1,-3,-3v-54a3,3,0,0,1,3,-3z" stroke-width="3"></path><g id="node_text10" fill="black"><text id="kity_text_97" text-rendering="inherit" font-size="48" dy=".8em" y="217.49999006465077" x="587.499997574836">tehnika, tootmine ja ehitus</text></g></g><g id="minder_node11"><g id="node_expander10" style="cursor: pointer;" display="none"><path id="kity_path_108" fill="white" stroke="gray" d="M1178.499984499067,317.4999883659184A6,6,0,1,1,1166.499984499067,317.4999883659184A6,6,0,1,1,1178.499984499067,317.4999883659184"></path><path id="kity_path_109" fill="none" stroke="gray"></path></g><path id="node_outline11" fill="rgb(238, 243, 246)" stroke="rgb(57, 80, 96)" d="M23.500009801238775,287.4999883659184h1139a3,3,0,0,1,3,3v54a3,3,0,0,1,-3,3h-1139a3,3,0,0,1,-3,-3v-54a3,3,0,0,1,3,-3z" stroke-width="3"></path><g id="node_text11" fill="black"><text id="kity_text_105" text-rendering="inherit" font-size="48" dy=".8em" y="293.4999883659184" x="40.500009801238775">põllumajandus, metsandus, kalandus ja veterinaaria</text></g></g><g id="minder_node12"><g id="node_expander11" style="cursor: pointer;" display="none"><path id="kity_path_116" fill="white" stroke="gray" d="M1178.499984499067,393.499986667186A6,6,0,1,1,1166.499984499067,393.499986667186A6,6,0,1,1,1178.499984499067,393.499986667186"></path><path id="kity_path_117" fill="none" stroke="gray"></path></g><path id="node_outline12" fill="rgb(238, 243, 246)" stroke="rgb(57, 80, 96)" d="M920.4999897517264,363.499986667186h242a3,3,0,0,1,3,3v54a3,3,0,0,1,-3,3h-242a3,3,0,0,1,-3,-3v-54a3,3,0,0,1,3,-3z" stroke-width="3"></path><g id="node_text12" fill="black"><text id="kity_text_113" text-rendering="inherit" font-size="48" dy=".8em" y="369.499986667186" x="937.4999897517264">teenindus</text></g></g><g id="minder_node13"><g id="node_expander12" style="cursor: pointer;" display="none"><path id="kity_path_124" fill="white" stroke="gray" d="M1178.499984499067,469.49998496845365A6,6,0,1,1,1166.499984499067,469.49998496845365A6,6,0,1,1,1178.499984499067,469.49998496845365"></path><path id="kity_path_125" fill="none" stroke="gray"></path></g><path id="node_outline13" fill="rgb(238, 243, 246)" stroke="rgb(57, 80, 96)" d="M805.4999923221767,439.49998496845365h357a3,3,0,0,1,3,3v54a3,3,0,0,1,-3,3h-357a3,3,0,0,1,-3,-3v-54a3,3,0,0,1,3,-3z" stroke-width="3"></path><g id="node_text13" fill="black"><text id="kity_text_121" text-rendering="inherit" font-size="48" dy=".8em" y="445.49998496845365" x="822.4999923221767">tervis ja heaolu</text></g></g><g id="minder_node14"><g id="node_expander13" style="cursor: pointer;" display="none"><path id="kity_path_132" fill="white" stroke="gray" d="M2583.49995309487,428.49998588487506A6,6,0,1,1,2571.49995309487,428.49998588487506A6,6,0,1,1,2583.49995309487,428.49998588487506"></path><path id="kity_path_133" fill="none" stroke="gray"></path></g><path id="node_outline14" fill="none" stroke="rgb(57, 80, 96)" d="M2588.4999528490007,401.49998588487506h777a5,5,0,0,1,5,5v44a5,5,0,0,1,-5,5h-777a5,5,0,0,1,-5,-5v-44a5,5,0,0,1,5,-5z" stroke-width="3"></path><g id="node_text14" fill="black"><text id="kity_text_129" text-rendering="inherit" font-size="48" dy=".8em" y="404.49998588487506" x="2588.4999528490007">bioloogia ja sellega seotud teadused</text></g></g><g id="minder_node15"><g id="node_expander14" style="cursor: pointer;"><path id="kity_path_140" fill="white" stroke="gray" d="M2583.49995309487,568.4999827556312A6,6,0,1,1,2571.49995309487,568.4999827556312A6,6,0,1,1,2583.49995309487,568.4999827556312"></path><path id="kity_path_141" fill="none" stroke="gray" d="M2572.99995309487,568.4999827556312L2581.99995309487,568.4999827556312"></path></g><path id="node_outline15" fill="#7030a0" stroke="rgb(57, 80, 96)" d="M2588.4999528490007,541.4999827556312h203a5,5,0,0,1,5,5v44a5,5,0,0,1,-5,5h-203a5,5,0,0,1,-5,-5v-44a5,5,0,0,1,5,-5z" stroke-width="3"></path><g id="node_text15" fill="#ffffff"><text id="kity_text_137" text-rendering="inherit" font-size="48" dy=".8em" y="544.4999827556312" x="2588.4999528490007">keskkond</text></g></g><g id="minder_node16"><g id="node_expander15" style="cursor: pointer;" display="none"><path id="kity_path_148" fill="white" stroke="gray" d="M2583.49995309487,676.4999803416431A6,6,0,1,1,2571.49995309487,676.4999803416431A6,6,0,1,1,2583.49995309487,676.4999803416431"></path><path id="kity_path_149" fill="none" stroke="gray"></path></g><path id="node_outline16" fill="none" stroke="rgb(57, 80, 96)" d="M2588.4999528490007,649.4999803416431h462a5,5,0,0,1,5,5v44a5,5,0,0,1,-5,5h-462a5,5,0,0,1,-5,-5v-44a5,5,0,0,1,5,-5z" stroke-width="3"></path><g id="node_text16" fill="black"><text id="kity_text_145" text-rendering="inherit" font-size="48" dy=".8em" y="652.4999803416431" x="2588.4999528490007">füüsikalised teadused</text></g></g><g id="minder_node17"><g id="node_expander16" style="cursor: pointer;" display="none"><path id="kity_path_156" fill="white" stroke="gray" d="M2583.49995309487,738.4999789558351A6,6,0,1,1,2571.49995309487,738.4999789558351A6,6,0,1,1,2583.49995309487,738.4999789558351"></path><path id="kity_path_157" fill="none" stroke="gray"></path></g><path id="node_outline17" fill="none" stroke="rgb(57, 80, 96)" d="M2588.4999528490007,711.4999789558351h526a5,5,0,0,1,5,5v44a5,5,0,0,1,-5,5h-526a5,5,0,0,1,-5,-5v-44a5,5,0,0,1,5,-5z" stroke-width="3"></path><g id="node_text17" fill="black"><text id="kity_text_153" text-rendering="inherit" font-size="48" dy=".8em" y="714.4999789558351" x="2588.4999528490007">matemaatika ja statistika</text></g></g><g id="minder_node19"><g id="node_expander18" style="cursor: pointer;"><path id="kity_path_172" fill="white" stroke="gray" d="M2812.499947976321,522.4999837838113A6,6,0,1,1,2800.499947976321,522.4999837838113A6,6,0,1,1,2812.499947976321,522.4999837838113"></path><path id="kity_path_173" fill="none" stroke="gray" d="M2801.999947976321,522.4999837838113L2810.999947976321,522.4999837838113"></path></g><path id="node_outline19" fill="#7030a0" stroke="rgb(57, 80, 96)" d="M2817.499947730452,495.49998378381133h427a5,5,0,0,1,5,5v44a5,5,0,0,1,-5,5h-427a5,5,0,0,1,-5,-5v-44a5,5,0,0,1,5,-5z" stroke-width="3"></path><g id="node_text19" fill="#ffffff"><text id="kity_text_169" text-rendering="inherit" font-size="48" dy=".8em" y="498.49998378381133" x="2817.499947730452">keskkonnateadused</text></g></g><g id="minder_node20"><g id="node_expander19" style="cursor: pointer;" display="none"><path id="kity_path_180" fill="white" stroke="gray" d="M2812.499947976321,615.4999817050993A6,6,0,1,1,2800.499947976321,615.4999817050993A6,6,0,1,1,2812.499947976321,615.4999817050993"></path><path id="kity_path_181" fill="none" stroke="gray"></path></g><path id="node_outline20" fill="none" stroke="rgb(57, 80, 96)" d="M2817.499947730452,588.4999817050993h638a5,5,0,0,1,5,5v44a5,5,0,0,1,-5,5h-638a5,5,0,0,1,-5,-5v-44a5,5,0,0,1,5,-5z" stroke-width="3"></path><g id="node_text20" fill="black"><text id="kity_text_177" text-rendering="inherit" font-size="48" dy=".8em" y="591.4999817050993" x="2817.499947730452">looduskeskkond ja elusloodus</text></g></g><g id="minder_node21"><g id="node_expander20" style="cursor: pointer;" display="none"><path id="kity_path_188" fill="white" stroke="gray" d="M3265.499937850982,491.4999844767153A6,6,0,1,1,3253.499937850982,491.4999844767153A6,6,0,1,1,3265.499937850982,491.4999844767153"></path><path id="kity_path_189" fill="none" stroke="gray"></path></g><path id="node_outline21" fill="none" stroke="rgb(57, 80, 96)" d="M3270.499937605113,464.4999844767153h286a5,5,0,0,1,5,5v44a5,5,0,0,1,-5,5h-286a5,5,0,0,1,-5,-5v-44a5,5,0,0,1,5,-5z" stroke-width="3"></path><g id="node_text21" fill="black"><text id="kity_text_185" text-rendering="inherit" font-size="48" dy=".8em" y="467.4999844767153" x="3270.499937605113">geoökoloogia</text></g></g><g id="minder_node22"><g id="node_expander21" style="cursor: pointer;" display="none"><path id="kity_path_196" fill="white" stroke="gray" d="M3265.499937850982,553.4999830909073A6,6,0,1,1,3253.499937850982,553.4999830909073A6,6,0,1,1,3265.499937850982,553.4999830909073"></path><path id="kity_path_197" fill="none" stroke="gray"></path></g><path id="node_outline22" fill="#7030a0" stroke="rgb(57, 80, 96)" d="M3270.499937605113,526.4999830909073h619a5,5,0,0,1,5,5v44a5,5,0,0,1,-5,5h-619a5,5,0,0,1,-5,-5v-44a5,5,0,0,1,5,-5z" stroke-width="3"></path><g id="node_text22" fill="#ffffff"><text id="kity_text_193" text-rendering="inherit" font-size="48" dy=".8em" y="529.4999830909073" x="3270.499937605113">integreeritud loodusteadused</text></g></g></g></g></svg>